<svg width="2387" height="727" viewBox="0 0 2387 727" fill="none" xmlns="http://www.w3.org/2000/svg">
<path fill-rule="evenodd" clip-rule="evenodd" d="M1845 0C1901.7 0.159 1870.73 93.8 1862 127C1835.93 228.322 1805.21 353.173 1733 406.999C1734.33 408.666 1735.67 410.333 1737 411.999C1741.84 413.82 1743.71 415.593 1746 420C1744.25 423.378 1743.38 425.13 1740 427C1733.1 429.315 1724.98 422.316 1720 418.999C1698.29 434.318 1677.64 451.422 1649 459.999C1590.17 477.62 1537.12 436.581 1525 395.999C1500.36 313.525 1616.84 253.319 1692 259C1704.49 183.324 1789.39 30.677 1845 0ZM690.999 10C704.719 10.753 718.151 15.158 722 26C731.243 48.726 702.737 106.865 695.999 123C670.303 184.542 637.18 230.181 599 277.999C576.955 305.608 539.582 325.108 532.999 366.999C533.666 366.666 534.333 366.333 535 366C549.238 333.893 612.424 277.42 643 259C659.252 249.409 689.688 243.83 703.999 259.999C724.917 283.632 705.33 368.701 704.999 406C704.98 427.543 706.554 462.479 721 468.999C745.452 480.37 795.975 432.788 810 425.999C809.333 425.333 808.666 424.666 808 424C805.333 418.333 802.666 412.666 800 406.999C793.291 377.576 842.629 298.34 855.999 288C866.332 282.667 876.667 277.332 887 272C935.88 255.742 985.87 279.821 982 327C982.333 327 982.666 327 983 327C1044.13 303.102 1101.11 270.896 1168 254C1205.54 244.517 1250.78 256.309 1267 277.999C1286.11 303.552 1270.98 336.333 1257 356C1230.79 393.867 1159.93 459.719 1100 461C1090.64 547.419 1078.76 618.751 1038 671.999C1021.8 693.167 991.216 716.819 956.999 695.999C926.144 677.225 919.714 615.991 928.999 566.999C943.497 490.508 966.626 430.723 1004 377.999C1018.33 361.1 1032.67 343.998 1047 327C1023.8 338.62 1001.51 346.424 974 356C960.494 398.77 909.883 433.616 862.999 443C845.576 446.487 825.648 433.405 818.999 436.999C800.845 445.82 787.31 463.664 767.999 472.999C760.334 475.666 752.665 478.333 745 481C727.356 484.813 710.932 478.49 701 470.999C667.72 447.38 667.236 377.823 675.999 323.999C678.541 308.392 680.961 286.274 676.999 270.999C676 271.333 674.999 271.666 674 272C662.1 280.665 649.998 289.334 638 298C610.753 319.727 585.277 350.407 565 379C558.254 388.511 527.88 445.222 523 447.999C510.552 451.736 500.179 444.811 493 440C493.666 423.1 494.333 405.998 494.999 388.999C482.45 399.139 444.541 445.309 427 436C450.997 410.2 475.2 383.997 499 357.999C507.195 341.232 507.884 309.344 515 291C548.137 205.564 613.979 44.473 690.999 10ZM1435 23C1520.43 21.365 1597.75 93.567 1561 179C1523.33 266.567 1420.89 342.139 1356 406.999C1335.27 427.721 1288.47 460.876 1300 501.999C1339.45 520.791 1417.36 511.894 1462 502.999C1478.18 499.776 1512.48 491.333 1521 506C1522.68 508.102 1522.55 507.975 1523 511.999C1456.46 518.357 1361.33 560.499 1298 518.999C1283.88 509.747 1261.63 493.381 1267 465.999C1274.32 428.709 1311.46 397.573 1337 377C1352.33 362.1 1367.67 346.998 1383 332C1420.52 301.767 1456.97 263.866 1486 225.999C1504.34 202.778 1550.28 154.481 1541 107.999C1530.83 55.621 1477.37 32.718 1415 48.999C1400.79 52.708 1383.91 55.7 1376 64.999C1347.22 101.152 1371 144.4 1405 157.999C1414.44 161.886 1439.94 160.26 1446 168C1445.67 169.666 1445.33 171.333 1445 173C1388.47 181.422 1316.98 145.594 1343 82.999C1354.23 55.991 1379.47 37.48 1409 28C1417.67 26.333 1426.33 24.666 1435 23ZM1845 38C1832.1 55.664 1819 73.335 1806 91C1762.99 159.587 1705.95 264.811 1716 375.999C1773.71 329.822 1802.6 215.37 1826 132C1831.41 112.731 1850.26 58.142 1845 38ZM686 46C673.1 63.331 659.998 80.668 646.999 98C610.723 155.535 571.598 223.977 551.999 295C553.333 294 554.666 292.999 556 291.999C571.998 271.668 588.1 251.331 603.999 231C628.942 195.92 647.522 157.995 665 114.999C670.6 102.551 689.907 59.508 686 46ZM184 96C186.999 96.666 190 97.333 192.999 98C193.333 98.999 193.666 100 193.999 101C204.694 124.121 179.38 191.643 175 214C202.228 214.302 281.871 216.264 299.999 207.999C304.83 193.394 336.823 106.1 343.999 100C345.333 99.666 346.666 99.333 348 98.999C350.333 100.666 352.666 102.333 355 104C355.731 144.191 340.444 175.75 332 207.999C372.788 207.577 418.363 199.34 443 215C443.666 216.666 444.333 218.333 444.999 220C444.666 220.999 444.333 222 443.999 223C412.704 237.177 360.182 221.563 323.999 231C311.667 264.996 299.332 299.3 286.999 332.999C325.621 332.453 379.579 323.292 400 343.999C400 345.666 400 347.333 400 349C399.333 349.666 398.666 350.333 398 350.999C358.337 352.333 318.662 353.666 278.999 354.999C275 365.998 270.999 377.1 266.999 388C256.1 419.996 244.998 452.3 234 483.999C230.855 493.964 229.842 512.614 221.999 517.999C216.635 519.97 211.833 516.509 207.999 513.999C207.401 462.58 225.999 396.413 242 356.999C242 356.666 242 356.333 242 356C203.337 356.666 164.662 357.333 126 357.999C115.334 386.33 104.665 414.669 93.999 443C87.87 458.724 85.63 477.723 76 490C66.414 489.833 62.629 486.877 57.999 481.999C57.609 432.178 81.67 399.141 89 357.999C66.338 364.477 9.739 361.471 0 349C1.32 345.172 0.0999999 346.92 3 345C20.702 336.38 53.687 342.287 75 338.999C81.999 338.999 89 338.999 96 338.999C108.665 304.67 121.334 270.329 134 236C101.71 239.407 35.634 248.857 21.999 225.999C22.666 224.333 23.333 222.666 24 221C63.662 219 103.337 216.999 142.999 215C156.665 175.337 170.334 135.662 184 96ZM279.999 232C242.67 233.333 205.329 234.666 168 236C156.667 269.663 145.332 303.336 134 336.999C134.333 337.333 134.666 337.666 134.999 338C173.662 336.333 212.337 334.666 250.999 332.999C263.998 299.669 277.1 266.33 290 232.999C290 232.666 290 232.333 290 232C286.667 232 283.332 232 279.999 232ZM1681 268.999C1666.97 274.497 1652.62 274.544 1640 279.999C1606.38 294.53 1539.1 342.71 1555 400C1578.68 484.841 1659.93 424.37 1696 397C1673.81 361.977 1681.51 313.89 1689 268.999C1686.33 268.999 1683.67 268.999 1681 268.999ZM2254 433.999C2302.63 432.771 2397.57 451.786 2385 499.999C2382.33 499.999 2379.67 499.999 2377 499.999C2363.94 457.14 2311.88 440.952 2253 449C2252.25 563.782 2217.9 655.183 2148 701.999C2110.45 727.146 2060.96 738.81 2020 706.999C1985.41 680.134 1980.53 610.38 2002 565C2035.86 493.955 2117.74 437.155 2219 434.999C2219.67 413.668 2220.33 392.331 2221 370.999C2221 371.666 2221 372.333 2221 372.999C2178.53 405.537 2132.25 456.688 2070 406C2055.89 408.719 2047.81 417.199 2036 422C1998.54 437.219 1955.81 424.659 1947 390C1918.23 412.275 1864.87 471.625 1811 438C1758.14 405.5 1829.55 288.31 1855 268.999C1861.65 269.175 1863.24 270.513 1867 273C1864.11 318.21 1797.29 377.175 1831 429C1879.2 426.403 1933.78 357.706 1955 323.999C1964.74 309.585 1972.17 282.522 1986 273C1998.26 265.533 2015.22 276.729 2019 284.999C2005.73 313.722 1964.46 374.932 1990 411.999C2081.85 411.179 2076.49 316.683 2135 281C2172.81 257.939 2218.1 273.17 2224 313.999C2234.88 307.509 2247.24 313.768 2255 318.999C2262.17 354.127 2254.26 397.129 2254 433.999ZM1206 270C1196.67 271.999 1187.33 274 1178 275.999C1155.48 283.821 1136.38 296.75 1118 307.999C1109.95 347.4 1102.46 391.223 1102 436.999C1152.84 417.178 1201.5 380.458 1229 336.999C1245.3 311.669 1252.53 268.888 1206 270ZM926 284.999C903.956 293.882 865.58 299.643 876.999 332C896.807 342.776 928.875 341.652 954 336C957.416 315.174 955.736 300.739 946 286.999C939.334 286.333 932.666 285.666 926 284.999ZM2178 295C2145.61 309.204 2088.83 359.786 2098 404.999C2101.67 406.999 2105.33 409 2109 411C2152.11 405.368 2208.17 362.92 2211 316C2203.87 303.488 2199.31 294.708 2178 295ZM845 325C832.77 357.392 799.663 394.619 832.999 429.999C882.292 430.665 925.642 392.783 942.999 359.999C895.831 361.36 866.254 349.607 845 325ZM1083 338C1068.33 354.998 1053.66 372.1 1039 388.999C1003.94 438.487 981.999 491.203 967 561.999C958.95 599.989 956.713 657.187 975 684.999C975.999 684.666 977 684.333 977.999 683.999C1027.88 644.461 1047.99 588 1062 511.999C1064.67 485.669 1067.33 459.33 1070 432.999C1074.33 401.336 1078.67 369.663 1083 338ZM2212 452.999C2194.33 457.999 2176.66 463 2159 467.999C2103.41 490.8 2052.59 530.12 2032 586.999C2017.66 626.597 2020.61 689.34 2053 706.999C2074.84 719.115 2116.93 688.34 2127 679.999C2200.97 623.43 2198.32 561.486 2218 452.999C2216 452.999 2214 452.999 2212 452.999Z" fill="white"/>
</svg>
