<svg width="37" height="14" viewBox="0 0 37 14" fill="none" xmlns="http://www.w3.org/2000/svg">
<path fill-rule="evenodd" clip-rule="evenodd" d="M1.7 13.8986L11.3 2.02899L14 5.37681L7 14H8.7L14.8 6.49275L17.4 9.73913L14 13.8986H15.7L18.3 10.6522L20.9 13.8986H22.6L19.1 9.63768L21.7 6.3913L27.8 13.8986H29.5L22.5 5.27536L25.1 2.02899L34.7 13.8986H36.4L25.3 0L21.8 4.26087L18.3 0L14.8 4.26087L11.3 0L0 13.8986H1.7ZM18.3 2.13043L21 5.37681L18.4 8.62319L15.8 5.37681L18.3 2.13043Z" fill="#333333"/>
</svg>
