<svg width="300" height="107" viewBox="0 0 300 107" fill="none" xmlns="http://www.w3.org/2000/svg">
<path fill-rule="evenodd" clip-rule="evenodd" d="M50.5188 0.0120875C53.5298 -0.0237401 56.3949 -0.0241501 58.7173 0.667969C67.3532 3.24132 75.3382 14.072 69.8674 24.8536C65.5024 33.4558 55.0274 38.7194 45.2717 42.0704C45.5723 42.3711 45.873 42.6717 46.1735 42.9723C47.1148 45.0989 48.5748 47.0577 49.371 49.5312C50.5425 53.2607 50.9042 57.3283 51.8306 61.3371C53.4973 68.1322 55.1543 73.6344 58.7993 78.2259C62.31 82.5252 70.9561 86.5479 77.246 88.1462C78.5517 88.5127 86.8999 89.2222 86.6743 89.9498C76.3635 91.8842 67.6502 87.8297 61.0949 83.719C58.8679 82.3225 56.4733 80.9694 54.864 78.9638C52.7579 76.3104 50.9259 73.2488 49.7809 69.6175C47.4293 62.1848 47.7814 49.8532 43.7141 44.1201C42.4288 42.3086 39.9908 42.2693 38.139 41.0867C35.8166 48.0937 35.9338 57.6139 33.2199 64.2885C30.3684 71.3016 26.4898 74.6117 21.5781 79.4558C18.5029 82.5305 11.9793 87.9562 5.59092 85.1948C-4.47982 80.8415 1.25448 63.2954 5.7549 57.3197C7.03419 55.621 11.3098 51.4641 14.1174 54.2863C14.1174 54.3136 14.1174 54.3409 14.1174 54.3683C13.2653 54.2648 12.3125 53.7766 11.1658 54.0403C5.87713 55.2566 2.65438 64.6901 1.65563 70.6014C0.468978 77.6246 3.84989 85.3864 11.2478 83.1451C20.7497 80.2664 27.6071 67.7861 30.1865 57.5657C31.4966 52.3744 31.7605 46.5165 33.3019 41.5786C35.6209 34.1497 39.3479 28.092 43.3861 22.3941C45.1878 19.8518 49.5793 13.1207 52.4045 12.1459C52.4318 12.2005 52.4591 12.2552 52.4865 12.3098C52.7687 13.8545 49.5546 18.3325 48.7152 19.6885C45.6169 24.8441 42.7637 29.9549 40.4346 35.9215C39.9427 37.1239 39.4508 38.3266 38.9589 39.529C41.693 39.5926 43.1712 41.3724 45.4357 40.6768C53.939 38.0644 62.6278 32.2154 66.7518 25.1816C70.8503 18.1915 68.1865 9.70111 63.1445 5.66907C59.2421 2.602 52.1699 1.2258 45.4357 2.79959C35.8567 5.03803 27.3921 8.43796 22.3159 15.1793C19.9784 18.2835 17.0607 23.5529 19.2824 28.7889C20.7577 32.1647 24.7019 33.4715 28.8747 31.8224C33.9406 29.8432 37.4738 25.867 39.4508 20.8363C40.1288 19.1111 40.3946 17.0969 40.7625 15.0974C40.9917 13.8517 40.8404 12.6335 41.3364 11.736C41.4731 11.7633 41.6098 11.7906 41.7463 11.818C41.7463 13.7034 41.7463 15.6057 41.7463 17.4749C40.4861 24.9946 37.2103 29.4891 31.7441 32.6421C26.5787 35.6595 20.2419 35.1482 17.8067 29.9366C15.874 25.8005 16.9384 20.4507 18.8725 17.1469C23.5849 9.09745 31.1103 4.83462 40.8445 1.81576C43.0579 1.32385 45.2882 0.831858 47.4854 0.340029C48.4964 0.23066 49.5077 0.121374 50.5188 0.0120875ZM215.801 17.1469C216.102 17.1743 216.402 17.2016 216.703 17.229C217.386 18.65 216.205 20.5313 215.719 21.6562C214.108 25.3866 212.561 28.9465 210.8 32.4782C212.949 32.1717 216.749 30.8922 218.753 32.0683C218.78 32.1776 218.807 32.2869 218.835 32.3962C218.78 32.3962 218.725 32.3962 218.671 32.3962C217.987 32.4236 217.304 32.4509 216.621 32.4782C214.435 32.9428 212.248 33.4074 210.062 33.872C209.297 35.3749 208.532 36.8782 207.766 38.3811C205.167 43.427 202.336 53.3615 206.045 59.4513C206.845 60.7812 207.842 62.0462 209.57 62.4028C211.274 62.7543 213.093 61.9842 214.161 61.3371C215.615 60.457 216.496 58.8747 217.523 57.5657C219.55 54.9825 221.896 52.6203 223.754 49.859C224.76 48.3936 226.16 44.2446 228.345 44.776C229.886 46.9505 226.013 49.2817 229.247 51.2529C232.087 52.9844 237.168 53.9532 241.544 53.2205C243.017 52.974 244.741 52.7701 244.496 54.3683C243.567 55.0787 242.638 55.7894 241.708 56.4999C239.555 58.2032 237.767 60.5036 236.461 63.0587C236.007 63.9473 234.731 65.7787 235.314 67.2399C236.317 69.1716 241.755 65.7127 242.528 65.1903C245.194 63.4244 248.407 60.8028 250.235 58.2215C251.638 56.3001 252.773 54.2417 254.17 52.4006C254.804 51.5656 256.758 47.5071 257.942 47.7275C259.268 47.9825 258.774 49.5946 258.351 50.4329C256.665 53.7815 255.354 57.2926 254.58 61.6649C254.326 63.0995 254.296 66.693 255.318 67.076C256.867 67.6348 259.514 65.2593 260.237 64.6985C264.51 61.3851 268.125 56.7992 271.387 52.4826C272.251 51.3783 274.55 47.448 276.634 47.8915C279.659 48.5351 279.323 53.2345 279.832 56.4999C279.832 58.604 279.832 60.7086 279.832 62.8127C279.668 65.354 279.504 67.9205 279.34 70.4374C278.618 74.5308 277.846 78.3814 276.962 81.9973C279.394 81.5601 281.827 81.1227 284.259 80.6855C287.046 80.303 289.858 79.9203 292.621 79.5377C295.244 79.0881 298.764 79.2414 300 80.6036C299.973 80.8768 299.945 81.1501 299.918 81.4235C299.55 82.3474 298.191 83.3736 297.13 83.555C297.477 82.4715 298.642 82.193 298.934 81.0135C298.879 81.0135 298.825 81.0135 298.77 81.0135C297.245 80.2054 293.79 80.8918 292.211 81.1774C286.517 82.2203 281.225 83.0143 276.06 84.3748C273.895 91.6938 266.267 99.2403 259.991 102.576C257.736 103.774 252.327 105.888 250.153 103.068C247.84 100.068 250.541 95.926 252.039 93.9671C256.791 87.7526 264.335 84.7 273.355 82.7351C275.924 76.9341 276.551 68.9409 276.552 60.7632C276.577 58.4156 276.728 52.9939 275.732 51.7447C270.251 56.7703 266.592 63.6989 260.401 68.0598C259.636 68.497 258.871 68.9344 258.105 69.3715C250.958 72.446 251.638 64.2985 252.203 59.3694C250.18 61.4735 248.158 63.5781 246.136 65.6822C244.635 66.878 242.965 67.8435 241.216 68.7976C239.844 69.5469 237.708 70.9456 235.478 70.0275C230.705 68.0894 233.146 62.4652 235.314 59.5333C236.571 58.331 237.828 57.1284 239.085 55.926C232.918 56.3087 228.067 55.0362 225.393 51.6628C225.339 51.6901 225.284 51.7174 225.229 51.7447C224.566 53.4461 223.236 54.6365 222.196 56.0079C219.713 59.4502 217.615 63.1568 213.424 64.8623C207.124 67.4255 203.17 62.1909 202.028 57.5657C201.472 55.3139 201.646 52.2991 201.782 49.7771C201.727 49.8044 201.672 49.8317 201.618 49.859C200.957 51.8784 199.372 53.3553 198.174 54.8601C195.159 58.6481 191.777 62.0944 186.04 63.2226C181.512 64.1246 174.506 63.8251 172.595 60.5991C172.231 59.9848 172.531 59.1126 173.497 59.3694C174.098 59.67 174.699 59.9706 175.3 60.2713C178.869 61.7007 182.617 62.1421 185.548 59.8613C188.824 57.3127 183.896 49.9207 182.761 47.2356C182.679 47.2902 182.597 47.3449 182.515 47.3995C181.376 48.7385 180.219 50.0779 179.072 51.4168C176.257 54.9314 169.712 60.422 165.38 62.3208C163.183 63.2838 158.022 65.1554 156.116 62.5668C153.899 59.5563 156.246 54.8559 156.69 51.9088C152.112 55.0005 147.907 58.5159 143.08 61.419C141.471 62.4012 139.162 64.2716 136.603 63.6326C136.35 63.2847 136.182 63.1404 136.111 62.5668C136.193 62.5122 136.275 62.4575 136.357 62.4028C137.806 61.6104 139.254 60.8177 140.703 60.0253C145.641 56.9812 150.142 53.128 154.722 49.6131C156.223 48.4616 159.056 44.9956 161.445 45.5958C161.726 45.9717 162.062 46.2775 162.101 46.9076C162.162 47.8895 160.886 49.2175 160.461 49.9411C159.323 51.8796 158.571 54.2322 157.92 56.5819C157.53 58.0021 157.085 60.8544 158.411 61.501C160.242 62.5478 164.523 59.1827 165.544 58.4676C170.077 55.2918 173.762 51.3818 178.006 47.9735C179.357 46.8886 180.949 44.3753 183.007 44.2021C183.556 44.74 183.659 45.5638 184.073 46.2517C185.945 49.364 190.498 55.511 188.254 60.1073C189.798 59.5929 190.809 58.126 192.025 57.2378C199.457 51.8113 202.665 43.7329 206.455 34.6098C203.121 35.2657 199.786 35.9216 196.453 36.5774C195.464 36.7841 193.61 37.1254 193.091 36.3315C193.161 35.9784 193.23 35.9831 193.419 35.7577C194.311 35.1665 195.852 35.21 197.027 34.9378C200.415 34.3093 203.804 33.6806 207.193 33.0521C208.094 31.1829 209.005 29.2806 209.898 27.3952C211.629 24.0009 213.134 19.6567 215.801 17.1469ZM165.544 36.5774C170.758 36.3791 167.456 42.6888 164.15 41.8245C163.487 41.6511 163.047 41.1663 162.757 40.5948C161.603 38.327 164.159 37.2449 165.544 36.5774ZM134.554 72.7329C134.762 86.7639 133.284 97.9804 125.207 103.805C122.056 106.148 116.446 108.187 111.926 105.445C106.705 102.278 106.78 95.1249 108.974 88.6381C111.776 80.4206 116.826 74.5866 125.289 71.9951C127.161 71.4868 129.155 70.5833 131.52 70.5193C131.623 64.9193 129.962 59.6636 128.405 55.6801C127.81 54.1591 127.521 51.7629 126.437 50.6789C125.913 54.5077 123.053 57.0191 120.616 58.9595C118.563 60.6508 116.459 62.4214 113.975 63.7966C111.902 65.0018 109.404 65.9057 106.843 66.4201C105.761 66.6373 104.213 66.1055 103.317 66.3381C102.935 66.584 102.552 66.8301 102.169 67.076C101.131 67.3766 100.092 67.6772 99.0541 67.9779C93.7366 69.2281 83.135 68.643 78.8037 66.994C77.3794 66.4517 76.2313 65.6153 75.1143 64.7804C71.317 65.5028 67.7205 68.4611 62.4886 67.5679C60.6776 67.2587 58.081 67.3977 57.8974 65.5182C57.9521 65.5182 58.0068 65.5182 58.0614 65.5182C59.3453 64.9595 61.4944 65.6757 63.0625 65.3543C66.1298 64.8584 71.5326 63.9407 73.3107 62.2389C71.6173 53.2017 78.8843 46.6135 84.3787 43.3003C86.4147 42.0902 91.0123 39.5858 93.8071 41.7426C96.2842 43.6542 94.7572 47.9883 93.561 50.1051C90.8426 54.9159 86.3098 58.1076 81.6732 61.009C80.4517 61.7469 79.2135 62.4849 77.9839 63.2226C78.0112 63.2773 78.0385 63.332 78.0659 63.3867C82.1582 64.5925 88.9459 66.9456 94.7089 66.0102C96.9548 65.6456 99.6101 66.301 101.268 65.3543C101.268 65.327 101.268 65.2997 101.268 65.2723C96.7562 63.1525 99.7346 59.0205 101.432 56.4999C105.256 50.8996 111.264 46.3574 119.304 45.022C122.03 44.5693 124.536 45.7491 126.109 46.6617C131.704 49.8972 133.627 61.9567 134.39 70.2734C144.27 70.189 156.516 72.8125 157.51 81.0954C157.482 81.1228 157.455 81.1501 157.428 81.1774C157.318 81.1774 157.209 81.1774 157.1 81.1774C152.965 75.2355 145.069 72.0437 134.554 72.7329ZM90.3637 43.2182C89.4072 43.4916 88.4506 43.7649 87.4941 44.0381C82.6218 46.1377 78.8721 49.8897 76.5081 54.5323C75.9714 55.5863 74.0341 59.7389 75.2783 61.3371C80.6696 58.7677 86.3382 54.7723 89.7898 50.1871C90.9327 48.6686 92.9395 46.4264 92.3312 43.7922C91.7894 43.3943 91.3814 43.2012 90.3637 43.2182ZM119.304 48.5474C117.802 48.9299 116.298 49.3125 114.795 49.6952C110.787 51.2734 107.079 53.9797 104.629 57.1558C103.968 58.0126 101.493 60.9567 102.579 62.5668C103.771 64.3321 108.613 63.1607 110.286 62.5668C115.071 60.8681 118.553 57.5242 121.354 53.8764C122.303 52.6678 124.593 51.0499 123.24 48.8752C122.164 48.5729 120.766 48.5406 119.304 48.5474ZM130.618 73.5529C129.498 73.826 128.377 74.0994 127.257 74.3727C125.708 75.0558 124.141 75.7392 122.584 76.4223C117.399 79.4396 113.382 84.6125 111.27 90.6878C110.284 93.5245 109.399 100.58 112.008 102.412C115.285 104.722 121.228 104.27 124.388 102.002C128.504 99.0453 130.189 92.3104 131.192 86.3425C131.302 84.4024 131.411 82.4617 131.52 80.5215C131.823 78.6777 131.981 75.7292 131.602 73.6348C131.274 73.6075 130.946 73.5802 130.618 73.5529ZM271.879 85.5226C270.13 86.1511 268.381 86.7799 266.632 87.4084C262.573 89.1522 258.714 91.4744 256.138 94.7051C255.017 96.1103 252.623 98.2089 253.104 100.772C255.417 101.794 258.505 99.7864 259.909 98.8863C264.359 96.0342 270.396 90.8997 272.125 85.5226C272.043 85.5226 271.961 85.5226 271.879 85.5226Z" fill="white"/>
</svg>
