<svg width="300" height="118" viewBox="0 0 300 118" fill="none" xmlns="http://www.w3.org/2000/svg">
<path fill-rule="evenodd" clip-rule="evenodd" d="M78.1107 0C79.2056 0.0200896 79.9737 0.329871 80.3204 1.10493C80.717 1.88541 80.25 3.01213 80.1196 3.91747C80.0861 3.91747 80.0527 3.91747 80.0191 3.91747C80.0932 2.90435 80.3709 1.64383 79.6174 1.20537C77.994 0.219579 74.5311 3.14904 73.5905 3.81692C69.0132 7.06741 62.7794 12.0457 60.03 16.9757C60.03 17.0091 60.03 17.0426 60.03 17.0761C72.0471 18.4717 80.4544 24.3557 84.2379 33.9514C86.2088 38.9499 85.6132 46.592 83.9367 51.3288C80.3033 61.5936 73.3777 68.8882 62.8426 72.1216C57.7185 73.7388 49.5764 74.142 44.6615 72.1216C43.3893 76.9426 42.1167 81.8048 40.8444 86.586C36.9471 98.9875 31.239 109.612 20.3531 115.113C15.8274 117.4 7.38352 118.252 3.17656 115.013C0.0181803 112.495 -0.784097 106.284 0.765814 101.251C3.13558 93.571 8.72661 87.4114 16.4357 85.0793C21.5147 83.5428 27.6609 85.6562 26.4805 91.5079C26.1919 92.9381 25.9339 94.2774 25.0741 95.1241C25.0741 94.9902 25.0741 94.8563 25.0741 94.7224C27.8234 87.951 23.0349 83.5923 16.1343 86.3851C9.76765 88.9619 5.13108 94.3695 3.07612 101.251C1.73795 105.733 2.41215 111.311 5.88866 112.803C7.27946 113.394 9.72577 113.625 11.6141 113.305C20.2113 111.865 24.6122 107.337 28.5898 101.352C35.4158 91.0803 37.9513 77.9361 41.2463 63.8849C42.7091 57.6461 42.7516 51.1434 44.2598 45.2015C45.9501 38.5412 48.2619 32.6958 50.7888 26.92C52.1949 24.4289 53.6114 21.8973 55.0077 19.3864C55.0077 19.3529 55.0077 19.3194 55.0077 19.286C48.6895 19.2277 42.967 20.684 38.3332 22.5003C26.0102 27.4082 16.8562 33.3387 10.5093 43.9961C7.93719 48.3512 4.45024 56.7146 6.89314 63.5834C12.0611 78.1153 30.9735 72.1778 35.2194 60.8713C37.3741 55.1591 33.264 49.0333 30.9002 45.9047C30.2272 44.9744 28.8434 44.0888 28.5898 42.7908C28.6568 42.6904 28.7238 42.5898 28.7908 42.4894C30.5468 42.7208 31.8379 44.4683 32.8086 45.5029C35.8545 48.9473 40.3715 54.84 38.2329 61.6749C34.4764 73.68 15.5273 80.8385 6.79269 68.4049C1.65076 61.1274 4.63567 50.0553 8.19896 43.4938C15.9579 29.2064 34.7306 16.8345 56.8156 16.8752C59.9095 11.5838 69.439 3.84454 74.9967 1.00448C76.0346 0.669686 77.0728 0.334793 78.1107 0ZM58.4229 19.3864C53.6122 26.8498 50.5538 35.8802 48.2776 45.9047C47.7754 49.8218 47.2731 53.7698 46.7709 57.657C46.1348 62.1433 45.4985 66.6308 44.8624 71.1171C62.0372 75.7663 74.7899 65.2498 79.7179 53.5387C81.901 48.3505 83.1574 39.8389 80.6219 33.9514C77.8405 27.493 72.2966 22.7949 65.2534 20.5918C63.1302 19.9277 60.8295 19.8284 58.4229 19.3864ZM252.789 85.6821C257.181 85.5515 260.716 83.2345 263.738 81.4632C269.861 77.8756 276.114 74.8944 281.719 70.9162C283.18 69.9348 288.892 64.2257 290.658 66.7978C292.159 68.9825 291.234 81.9153 291.06 85.4812C290.998 86.7621 290.309 91.249 290.759 91.6084C291.797 92.0436 292.835 92.4791 293.873 92.9142C297.467 95.1051 298.778 97.1175 300 101.754C299.866 101.821 299.732 101.888 299.598 101.955C298.509 97.7981 294.806 93.4923 290.056 93.1151C290.056 93.1821 290.056 93.2491 290.056 93.316C289.167 95.0918 288.997 97.112 288.047 98.7403C284.994 104.021 280.349 107.641 273.683 109.287C267.476 110.828 259.436 109.028 257.611 104.566C256.379 101.552 258.462 99.2365 259.72 97.7357C263.358 93.397 269.434 91.5464 276.294 90.403C277.933 90.13 285.902 90.636 286.239 90.3027C287.903 86.7458 286.961 80.0005 287.645 75.5368C287.645 73.9632 287.645 72.3893 287.645 70.8157C286.148 71.887 284.631 72.9587 283.125 74.0301C281.35 75.0344 279.575 76.0391 277.801 77.0435C277.466 77.4452 277.131 77.8471 276.797 78.2489C274.319 79.4206 271.841 80.5928 269.363 81.7645C263.999 84.1149 258.657 86.6831 252.086 88.0927C249.5 97.8692 237.482 105.321 227.778 108.182C220.469 110.338 210.846 106.206 208.592 101.653C205.429 102.055 202.246 103.42 198.749 103.963C189.054 105.618 182.132 100.495 183.782 90.8048C184.15 88.3138 184.518 85.7822 184.887 83.2712C183.29 84.51 181.672 85.7491 180.065 86.9878C176.929 88.9929 172.891 90.7878 169.116 92.0103C166.042 93.006 161.413 92.3437 158.268 93.6173C156.62 94.6842 154.775 98.2727 152.944 99.7447C146.936 104.653 134.524 113.086 123.413 107.78C120.628 106.451 119.681 104.778 117.988 102.356C116.562 103.407 115.289 104.582 113.468 105.269C112.129 105.504 110.79 105.738 109.45 105.972C107.136 106.343 104.778 105.56 103.524 104.667C97.2169 100.567 100.661 92.3445 101.214 85.0793C99.6286 85.453 98.3211 86.6334 97.0953 87.3896C91.8719 90.6824 87.6051 94.3309 82.9322 97.9367C81.3921 98.8071 79.8516 99.6779 78.3115 100.548C75.3653 102.524 72.4183 104.499 69.4722 106.475C67.5573 107.881 59.7193 113.674 56.1126 111.196C51.5894 108.145 61.622 101.122 64.3493 102.457C64.3493 102.557 64.3493 102.658 64.3493 102.758C61.878 104.118 58.1355 105.381 57.7198 108.685C57.7867 108.685 57.8537 108.685 57.9207 108.685C60.3008 109.656 62.8599 107.117 64.0479 106.274C65.8881 104.968 69.5455 102.928 70.6775 101.151C71.6149 98.9748 72.5526 96.798 73.4901 94.6218C78.4762 84.2043 84.0609 74.5683 90.4658 65.5925C92.6331 62.5549 95.3475 59.916 97.5976 57.0543C99.3705 54.9255 105.988 47.9538 109.852 48.6167C114.69 49.4965 113.114 56.6395 111.66 60.0678C108.838 66.9243 104.415 72.7047 100.109 78.1484C98.2674 80.1907 96.4255 82.2335 94.5841 84.2757C96.392 83.3718 98.2103 82.4676 100.008 81.5636C103.552 80.4438 105.451 83.0309 104.729 86.7869C103.703 92.1288 100.664 101.676 107.542 102.859C110.474 103.38 117.12 100.079 117.888 98.6397C118.089 97.8698 118.29 97.0995 118.491 96.3294C119.167 94.8198 120.274 93.2951 121.303 92.0103C124.715 87.7504 130.041 84.7993 135.667 82.769C137.543 82.0921 139.065 82.3423 140.891 81.6641C142.887 80.9224 144.837 79.3079 147.018 78.4498C157.235 74.4295 165.358 79.7715 160.177 90.2021C165.676 90.1526 170.354 87.9716 173.938 85.8829C176.281 84.7881 178.626 83.6729 180.969 82.5681C185.852 79.3157 189.273 74.3721 192.42 69.3089C193.257 68.0133 194.095 66.6972 194.931 65.3916C194.865 65.3916 194.798 65.3916 194.731 65.3916C188.068 65.3246 181.404 65.2576 174.741 65.1907C174.741 65.2241 174.741 65.2576 174.741 65.291C176.349 65.425 177.966 65.5589 179.563 65.6928C179.563 65.7264 179.563 65.7598 179.563 65.7934C176.275 65.7829 171.802 66.0244 168.815 65.291C168.782 65.2241 168.748 65.1571 168.715 65.0901C168.815 64.8223 168.916 64.5544 169.016 64.2867C174.337 62.9691 181.732 63.2821 187.8 63.2822C190.645 63.2822 193.492 63.2822 196.338 63.2822C197.61 61.5846 198.883 59.8667 200.155 58.1593C202.666 55.0792 205.197 51.9982 207.688 48.9181C209.065 47.1533 210.22 44.436 213.213 45.2015C215.403 48.0443 213.107 49.589 211.606 51.6302C208.66 55.5807 205.713 59.5325 202.767 63.4831C202.833 63.4831 202.9 63.4831 202.967 63.4831C210.768 63.7509 218.571 64.0188 226.372 64.2867C228.678 64.625 231.365 63.9521 233.001 64.7889C232.934 65.0232 232.867 65.2576 232.8 65.4919C222.263 65.4919 211.705 65.4919 201.159 65.4919C199.82 67.4672 198.481 69.4431 197.141 71.4184C193.866 76.6327 190.737 82.2383 188.804 88.6954C185.807 98.7072 190.825 103.139 201.26 101.05C203.613 100.596 206.012 100.133 208.09 99.3429C208.104 92.4853 219.251 85.9207 224.965 84.3762C225.099 83.5392 225.233 82.702 225.367 81.865C226.914 78.1032 231.674 76.0116 235.914 74.9341C245.649 72.4604 253.55 75.8218 252.789 85.6821ZM108.346 53.0364C106.722 54.3013 104.992 55.2899 103.424 56.5522C101.746 57.9019 100.248 59.7817 98.9034 61.474C93.8396 67.8457 89.2576 74.4427 84.9411 81.6641C82.4949 85.7564 79.3895 90.1761 77.8092 94.9232C80.7165 92.838 83.22 89.9146 85.7446 87.3896C92.0984 81.0353 98.0141 74.686 102.921 66.7978C105.231 63.1076 108.688 58.7484 108.647 53.0364C108.546 53.0364 108.446 53.0364 108.346 53.0364ZM240.033 77.0435C238.961 77.2109 237.89 77.3783 236.818 77.5457C233.589 78.4388 228.579 80.098 227.878 83.3718C230.08 83.0081 235.982 81.5861 236.216 84.6775C235.881 85.5145 235.546 86.3517 235.211 87.1887C240.352 87.4026 245.553 87.1356 250.077 86.1842C251.026 78.6648 247.833 76.9382 240.033 77.0435ZM153.045 80.0569C151.006 80.8222 148.309 80.4911 146.917 81.865C152.214 82.6548 154.845 88.9859 149.027 90.9052C149.127 90.7379 149.228 90.5705 149.328 90.403C150.815 89.7638 151.983 86.8803 150.333 85.5815C146.277 82.3894 137.814 84.672 137.676 89.499C139.157 92.3379 153.314 92.2629 156.761 90.6039C158.363 86.2201 162.109 79.9072 153.045 80.0569ZM232.499 83.9744C231.203 84.2757 229.887 84.5771 228.582 84.8784C228.582 84.9119 228.582 84.9454 228.582 84.9788C228.649 85.0124 228.716 85.0458 228.783 85.0793C229.741 86.3674 232.785 87.0475 234.91 87.0882C235.111 86.2513 235.312 85.4141 235.513 84.5771C235.446 84.4767 235.379 84.3761 235.312 84.2757C234.457 84.1252 233.646 83.9718 232.499 83.9744ZM225.568 85.9833C224.564 86.4521 223.559 86.9209 222.555 87.3896C218.886 89.4818 215.019 91.691 213.012 95.4254C211.554 98.2079 211.848 101.723 214.117 103.26C216.899 105.145 223.633 105.192 227.577 104.265C236.035 102.28 242.541 98.5186 246.863 92.4121C247.73 91.188 248.956 89.7972 249.274 88.0927C243.999 88.8642 236.962 90.4523 231.193 88.9967C229.797 88.3941 228.381 87.7914 226.974 87.1887C226.506 86.787 226.037 86.3851 225.568 85.9833ZM133.457 87.1887C128.971 89.4827 125.511 90.8936 123.915 96.1285C122.956 99.2747 123.681 103.507 125.723 104.868C127.8 106.251 132.978 106.128 135.768 105.47C142.009 103.998 146.476 100.94 150.734 97.5348C152.02 96.5644 154.079 95.0214 154.552 93.4164C152.007 93.4164 149.462 93.4164 146.917 93.4164C141.724 94.1622 133.277 93.5563 135.165 87.3896C135.098 87.3227 135.031 87.2557 134.964 87.1887C134.462 87.1887 133.96 87.1887 133.457 87.1887ZM279.609 92.0103C277.419 92.3785 275.189 92.7469 272.98 93.1151C269.187 94.2486 261.1 98.0861 261.026 102.457C262.366 105.038 268.179 105.742 271.975 104.868C277.866 103.511 285.206 98.6219 285.736 92.2112C285.669 92.2112 285.602 92.2112 285.535 92.2112C284.124 91.6316 281.387 91.9923 279.609 92.0103Z" fill="white"/>
</svg>
