<svg width="300" height="111" viewBox="0 0 300 111" fill="none" xmlns="http://www.w3.org/2000/svg">
<path fill-rule="evenodd" clip-rule="evenodd" d="M294.099 0.0290512C295.408 -0.0546124 296.413 -0.0166213 296.694 0.963156C296.625 0.997826 296.556 1.03239 296.487 1.06706C290.619 1.92653 285.884 5.40283 282.889 9.37104C282.889 9.40571 282.889 9.44027 282.889 9.47494C295.705 11.3327 302.921 24.3538 298.874 39.5772C296.067 50.4061 289.666 58.8239 280.605 63.4515C277.531 65.0396 271.973 67.0789 267.319 65.4237C264.682 64.4862 263.27 62.4973 261.298 60.9602C261.263 60.9602 261.229 60.9602 261.194 60.9602C261.17 64.2671 260.192 67.6807 259.533 70.6136C259.326 72.1705 259.118 73.7381 258.911 75.2847C257.779 78.8828 256.627 82.4819 255.485 86.08C252.775 92.4348 245.603 100.953 240.434 104.972C236.192 108.27 225.556 113.462 220.608 106.944C218.527 104.168 218.688 99.0337 220.089 95.6297C222.629 89.4583 229.777 81.836 236.905 80.3709C244.713 78.7663 245.379 89.528 241.368 93.1384C241.334 93.1384 241.299 93.1384 241.264 93.1384C241.264 93.1039 241.264 93.0693 241.264 93.0347C242.969 89.6527 244.838 84.669 240.849 82.1356C240.149 81.6907 239.059 81.0624 237.735 81.3052C231.172 82.5086 224.23 89.9992 221.854 95.526C220.002 99.8331 220.14 105.36 224.345 107.048C227.518 108.321 230.352 106.439 232.234 105.283C237.546 102.164 241.723 98.5727 245.209 93.6574C247.538 90.3739 249.876 86.5318 251.437 82.5508C251.99 80.4058 252.544 78.2601 253.098 76.1151C255.759 67.1558 256.796 57.1633 259.533 48.1926C262.278 39.1974 265.404 30.586 269.81 23.1767C272.404 19.2634 275.021 15.2874 277.595 11.3433C257.708 10.1293 238.198 22.29 230.884 33.9719C227.406 39.5275 223.554 49.7307 228.808 56.4967C231.259 59.6517 236.642 60.8808 241.576 59.1956C247.689 57.1073 252.827 52.8913 254.343 46.2205C255.394 41.6014 253.65 36.5049 251.956 33.7644C251.511 32.961 250.101 30.7738 248.738 31.8959C248.171 32.3632 248.238 33.4701 247.908 34.1796C247.837 32.7166 248.092 31.7053 249.05 31.2732C250.694 30.3885 252.158 32.4357 252.786 33.3492C254.584 35.961 256.822 40.8862 256.004 45.7014C255.499 48.7086 254.611 51.1776 253.202 53.279C249.134 59.343 236.933 66.2984 228.601 59.7146C220.998 53.7071 224.162 40.3885 228.393 33.4529C236.338 20.4285 250.649 12.6045 268.149 9.16354C271.798 8.52724 276.201 9.09648 279.775 8.85203C282.02 5.92318 286.089 2.69767 289.636 1.17086C290.982 0.591237 292.601 0.646459 294.099 0.0290512ZM57.7443 5.5304C71.4847 5.3665 80.0848 9.86503 82.968 20.4778C83.5809 22.7344 83.9597 26.5451 83.3832 29.3008C82.914 31.7575 82.2274 34.1486 81.307 36.2556C76.1957 47.9564 65.9274 53.4466 52.8657 57.3271C52.9002 57.3963 52.9348 57.4656 52.9694 57.5348C58.3617 60.0964 59.9663 75.4322 63.2457 80.9938C69.0461 90.9 78.6032 97.3508 91.1682 100.405C93.968 101.097 97.5862 100.457 100.407 100.82C100.025 101.868 98.7388 101.829 97.7076 102.169C92.0952 104.388 83.5612 101.912 79.0235 99.8855C67.1009 94.6837 61.213 88.5944 57.1214 75.4924C55.4749 70.2198 53.0161 57.5337 46.1186 58.5727C45.4267 62.1016 44.7345 65.6624 44.0426 69.1605C40.1514 84.4092 35.4219 96.8524 23.9051 104.349C19.6471 107.121 10.2732 111.198 3.9753 107.359C-0.348637 104.724 -0.976737 98.1517 1.27647 92.827C4.37659 85.5017 10.6824 79.2791 17.2618 75.3885C20.1942 73.6546 26.2485 71.9944 28.7837 75.2847C29.7983 76.6014 30.1691 78.2839 30.756 80.0596C30.7214 80.0942 30.6868 80.1287 30.6521 80.1634C30.583 80.1287 30.5138 80.0942 30.4447 80.0596C28.7176 74.0788 24.166 72.9445 18.5074 76.0113C12.1954 79.4877 6.33646 85.6568 3.45629 92.5156C1.55123 97.0527 1.61476 103.597 6.25902 105.076C16.0151 108.183 26.6834 97.3885 30.1331 92.5156C34.8551 85.846 37.5758 77.8012 39.7867 68.5376C40.6862 63.9016 41.586 59.2643 42.4855 54.6284C43.9158 48.992 45.773 42.9178 47.6755 37.5012C50.4652 29.5588 53.5106 23.0393 59.405 18.298C60.4559 17.4527 61.2562 16.3564 62.5192 15.703C62.9164 15.84 62.8088 15.7028 62.9343 16.0143C63.7253 17.5043 58.5316 23.7296 57.6405 25.1488C53.0857 32.4627 47.9098 44.9347 46.8451 55.355C51.8978 56.7389 56.6497 54.5885 60.2354 52.9676C68.7875 49.1015 75.1259 42.9977 78.6083 34.0758C82.606 23.8336 79.1602 15.0743 71.9649 10.8244C65.5974 7.06313 53.79 7.90661 46.2223 9.99395C30.1962 14.4142 7.03493 23.7707 4.3905 40.719C3.18745 48.4299 14.7437 54.1908 22.8671 52.1372C28.9786 50.5921 35.8605 44.8068 33.9739 35.9441C33.753 34.9477 33.1705 34.3319 32.9359 33.4529C33.0396 33.3837 33.1435 33.3145 33.2472 33.2454C37.0864 35.478 35.0948 44.6775 33.351 47.5699C26.7919 58.4489 7.37364 57.1724 2.62588 45.5976C-0.628692 37.6628 6.13965 30.3375 9.47675 26.4982C17.4457 17.5434 30.2007 12.0514 43.1084 8.12553C46.3811 7.12997 49.8247 6.59623 53.3847 5.9456C54.8377 5.80724 56.3015 5.66887 57.7443 5.5304ZM128.744 9.05974C145.539 8.7447 147.109 27.298 139.02 37.7087C137.38 39.8199 134.797 41.5969 131.651 42.1723C124.673 43.4479 121.192 34.6091 125.526 30.5464C125.699 30.5811 125.872 30.6157 126.045 30.6502C126.253 31.1 126.461 31.55 126.668 31.9998C126.634 31.9998 126.599 31.9998 126.564 31.9998C126.322 31.6884 126.08 31.3768 125.838 31.0654C122.255 32.9782 125.56 41.5997 130.924 40.6151C137.892 39.3362 143.124 27.272 140.37 18.1942C138.778 12.9469 131.996 10.4258 125.215 12.4852C120.647 13.8724 116.743 18.2493 114.939 22.4501C112.206 28.8129 114.549 36.4739 117.326 41.1342C119.589 44.9312 122.447 48.441 125.838 51.099C133.092 56.7865 138.589 58.8157 140.474 70.0947C141.278 74.7265 139.219 79.0694 137.567 81.5127C133.22 88.4125 126.305 93.0798 117.534 95.526C112.568 96.9182 104.814 96.9761 100.926 94.5917C95.5642 91.4096 92.9251 84 95.943 76.3228C98.721 69.2559 104.394 63.5428 111.513 60.7525C117.895 58.3249 122.285 62.0623 123.45 67.292C123.724 68.5186 124.278 72.0839 123.45 73.2086C123.381 73.1741 123.312 73.1395 123.243 73.1048C123.372 64.7771 119.329 59.0091 111.098 62.621C105.105 65.2506 95.0638 75.7965 98.1228 85.6648C99.7552 90.9769 105.639 93.857 113.278 92.308C121.004 90.7415 127.951 87.4258 131.858 82.0317C136.021 76.2849 135.418 67.8005 131.235 62.5172C128.809 59.4526 124.549 57.5778 121.478 55.1473C114.67 49.8515 105.52 35.5907 109.541 22.7615C110.421 19.9534 112.229 17.6503 113.901 15.4953C116.414 12.3622 120.502 10.7787 125.007 9.57874C126.253 9.40571 127.509 9.23267 128.744 9.05974ZM179.088 10.9281C190.317 10.7387 190.259 22.7927 187.911 32.1036C184.223 46.7262 179.456 59.1178 176.7 75.2847C175.697 81.1783 175.842 92.144 178.672 95.6297C179.226 96.0103 179.78 96.3909 180.333 96.7716C185.058 96.5639 188.735 89.0445 190.713 85.6648C198.181 72.969 201.084 56.3175 205.142 40.0962C206.376 35.1626 206.925 29.7298 208.359 25.0451C208.733 23.8264 208.833 20.8001 209.813 20.1663C210.09 20.1318 210.366 20.0972 210.643 20.0626C212.455 20.9544 213.218 24.729 212.719 27.7438C211.773 33.4636 211.706 38.3927 210.228 43.2102C209.055 47.3395 208.526 52.2084 207.218 56.2892C206.041 59.5758 204.865 62.8635 203.688 66.1502C201.954 71.0807 200.795 75.7311 198.81 80.2671C196.848 83.5539 194.865 86.8416 192.893 90.1283C190.701 93.6239 186.522 101.83 180.229 100.716C173.656 99.552 171.375 84.7606 172.86 75.9076C173.807 70.2576 174.334 65.04 175.662 59.9221C178.292 51.0307 180.922 42.1368 183.551 33.2454C184.872 28.4998 186.862 19.9377 183.759 15.8068C180.511 11.484 174.188 15.7748 171.614 17.779C165.35 22.656 161.217 29.6314 158.327 37.9164C157.476 40.592 155.961 45.3122 157.289 48.504C158.724 51.9753 163.367 51.8128 166.424 49.9573C170.092 47.7311 171.478 43.7131 172.341 38.643C172.375 37.1553 172.41 35.6672 172.444 34.1796C172.652 34.1796 172.86 34.1796 173.067 34.1796C175.098 41.7716 172.21 49.2823 167.254 52.2408C162.994 54.8204 157.482 54.3974 155.317 50.1648C153.101 45.8326 155.391 39.1883 156.667 35.6327C160.164 25.9419 166.199 17.5145 174.52 12.5889C175.903 11.7705 177.509 11.7129 179.088 10.9281ZM280.709 11.7585C276.2 18.0809 271.921 24.7808 268.668 32.415C267.042 37.3277 265.415 42.2419 263.789 47.1547C261.567 54.1938 259.756 60.7127 267.422 63.14C273.176 64.9619 278.775 61.2104 281.851 58.9879C288.977 53.9706 293.449 46.3362 295.864 36.6708C299.116 23.6559 291.787 12.4393 280.709 11.7585ZM156.251 101.443C156.207 101.539 156.335 101.513 156.148 101.65C156.182 101.581 156.217 101.512 156.251 101.443Z" fill="white"/>
</svg>
