<svg width="300" height="105" viewBox="0 0 300 105" fill="none" xmlns="http://www.w3.org/2000/svg">
<path fill-rule="evenodd" clip-rule="evenodd" d="M101.699 0C103.917 0.377953 104.861 3.29687 103.9 5.55984C102.382 9.1325 98.5339 12.1827 95.4441 14.2471C89.1861 18.5282 77.4133 23.8493 65.7915 22.0077C62.5871 21.4998 59.3737 20.9452 56.4093 20.6177C55.4442 24.4784 54.4788 28.3401 53.5136 32.2008C52.7029 37.2196 51.8919 42.2399 51.0811 47.2587C50.6952 51.6983 50.3089 56.1393 49.9228 60.579C49.4982 64.4783 49.0734 68.3786 48.6487 72.2779C47.077 80.232 45.3236 87.0898 41.8147 92.8957C39.2324 97.1687 33.0582 106.353 25.0194 103.899C17.9182 101.732 11.6388 89.4017 14.5947 79.3435C16.6326 72.5247 21.1461 67.2565 26.2935 63.5907C29.5656 61.2866 39.1305 57.6141 40.1931 64.6331C40.1545 64.6331 40.116 64.6331 40.0773 64.6331C39.421 63.9768 38.7646 63.3203 38.1082 62.6641C28.6594 58.6714 19.0959 71.9744 17.3746 79.8069C15.6932 87.8781 20.9492 98.8463 26.641 99.9612C32.5274 101.096 38.3895 91.0601 40.0773 87.2199C42.3617 82.0225 43.8785 76.3312 45.1739 69.8454C46.139 61.8926 47.1044 53.9373 48.0695 45.9844C49.1742 40.4478 50.1032 34.9686 51.6604 29.7683C52.6641 26.564 53.6682 23.3586 54.6719 20.1543C54.6333 20.1157 54.5947 20.0772 54.556 20.0386C51.8429 19.7176 49.1819 18.4297 46.9112 17.4902C38.5432 14.0705 32.1275 8.85173 22.4712 6.9498C16.172 5.73753 2.99324 8.66177 0.463397 11.6987C0.733745 12.4323 1.00398 13.1661 1.27421 13.8996C1.23564 13.8996 1.19706 13.8996 1.15838 13.8996C1.11981 13.8223 1.08123 13.7451 1.04255 13.6679C-2.13085 10.6536 2.76784 8.68679 4.74911 7.52895C9.29162 4.95984 18.2982 1.22907 26.1777 2.66398C30.7519 3.48776 34.5968 4.6639 38.3398 6.25482C41.5465 7.61756 44.7041 9.05976 48.0695 10.4247C60.4554 15.4378 83.2477 17.754 94.9807 10.5404C97.4858 9.00046 101.643 6.62548 102.394 3.4749C102.162 2.32818 101.931 1.15818 101.699 0ZM205.714 86.8724C198.974 86.8597 192.441 83.9497 189.382 80.0384C188.595 78.9875 187.951 76.4096 187.066 75.7528C186.412 77.7979 184.775 79.6657 183.591 81.3127C179.01 87.8123 174.708 93.4065 167.722 97.5288C165.313 98.9502 159.918 101.502 156.486 99.2662C154.484 97.9132 153.701 94.3894 154.517 91.1582C155.928 85.5792 158.131 80.6857 159.961 75.0578C159.923 75.0192 159.884 74.9806 159.846 74.942C151.231 81.1042 143.59 92.7217 132.741 96.2547C123.854 99.1489 115.973 97.1633 117.684 87.1042C117.568 87.1428 117.452 87.1813 117.336 87.2199C113.67 92.1891 107.333 96.4504 100.772 98.3396C95.1312 99.988 90.9503 97.526 90.2317 92.664C88.2802 94.0882 86.3676 95.5804 84.2085 96.8338C81.8231 98.2189 79.3712 98.498 76.3321 99.3821C70.2622 101.148 63.7759 102.455 61.8533 95.4438C59.8323 88.0731 65.2244 78.1505 67.6449 73.3203C68.5083 71.6234 69.8121 69.8993 70.1931 67.8764C66.1851 67.9232 60.7774 69.5152 57.1043 68.2239C57.143 67.9922 57.1815 67.7605 57.2201 67.5288C60.7458 67.0332 73.1695 61.9092 74.5946 66.4864C75.3752 68.9931 73.6924 71.7722 72.973 73.4362C70.9639 78.2295 68.8785 82.9085 67.4132 88.1465C66.459 91.5576 66.2385 96.013 69.6139 96.8338C75.5091 98.2674 81.6937 94.6828 84.9036 92.3165C93.5368 86.005 100.175 72.669 110.965 69.3822C118.289 67.1513 124.052 74.3972 122.548 82.0076C122.125 84.1477 120.019 89.3013 120.579 91.6214C120.992 93.3319 122.704 93.8416 124.517 94.1697C129.009 95.0026 132.431 92.9478 134.942 91.3898C141.804 87.1886 147.448 82.1552 152.664 76.4477C154.204 74.7951 159.421 67.814 162.857 70.1929C164.765 71.5006 164.746 75.4007 164.015 78.0694C162.837 82.3761 160.949 86.1326 159.498 90.1157C158.995 91.4979 158.193 94.0104 159.035 95.5598C163.568 95.9614 167.272 92.9544 169.923 90.9265C175.422 86.7206 179.67 80.829 183.707 75.1737C185.581 72.5471 187.41 69.3587 189.961 67.413C190.27 67.5288 190.579 67.6447 190.888 67.7605C191.002 69.3756 189.713 70.3954 190.193 72.6254C191.676 79.5105 198.437 82.142 206.757 82.1235C210.252 74.3067 216.246 68.9546 224.363 65.7914C227.687 64.4959 233.704 63.7492 235.599 66.8338C237.91 70.5966 234.696 75.0289 232.819 76.9111C228.526 81.2143 223.022 84.3546 216.139 86.0616C213.73 86.3705 211.274 86.6794 208.842 86.9882C208.708 96.966 217.244 98.3515 225.869 99.7296C227.754 100.031 230.485 100.23 232.355 99.8454C241.459 98.0581 247.447 92.7948 254.363 88.9574C250.942 69.0788 262.44 54.7621 271.158 43.8995C272.85 41.7911 279.931 34.2394 284.131 36.0231C288.962 38.1535 285.538 49.5173 284.131 53.0502C280.206 62.978 275.124 71.9195 269.073 79.691C266.452 83.1312 262.532 85.5931 260.039 88.8416C261.797 94.3278 269.16 97.157 276.602 95.4438C284.665 93.5881 291.636 88.7428 295.598 82.7025C296.515 81.3048 299.185 72.7888 300 72.3937C300 72.4709 300 72.5482 300 72.6254C299.961 73.552 299.923 74.4787 299.884 75.4052C298.796 81.6001 296.96 84.5164 293.861 88.3782C289.22 94.1616 275.005 103.893 263.861 99.4979C261.394 98.5252 258.635 96.4995 257.143 94.5172C256.641 93.7451 256.139 92.9727 255.637 92.2006C252.201 94.324 248.764 96.448 245.328 98.5713C241.654 100.411 230.695 104.003 224.71 102.973C215.362 101.363 205.622 97.8414 205.714 86.8724ZM282.51 38.8031C271.231 45.1497 261.648 62.2138 258.765 77.0269C258.276 79.535 258.647 82.644 258.765 85.135C260.723 84.4797 264.275 80.0755 265.598 78.4169C271.707 70.7613 277.104 62.5412 281.12 52.7026C282.302 49.8047 285.038 42.409 282.973 38.8031C282.818 38.8031 282.664 38.8031 282.51 38.8031ZM228.996 68.3396C227.386 68.8029 225.753 69.2664 224.131 69.7297C218.718 72.0266 212.594 76.3681 210.463 81.8918C219.002 81.9428 230.152 75.806 232.123 69.3822C232.008 69.1118 231.892 68.8416 231.776 68.5713C230.849 68.4941 229.923 68.4169 228.996 68.3396ZM112.587 73.8995C110.874 74.6316 109.376 74.6789 107.954 75.5212C103.074 78.411 99.7984 83.1987 95.9074 87.1042C94.3566 88.6606 91.1223 92.6997 94.2857 95.2122C96.3557 96.8563 100.678 95.7148 102.741 94.8647C107.416 92.9392 116.517 86.0264 118.263 81.5443C118.263 80.695 118.263 79.8454 118.263 78.9961C117.784 75.0904 117.04 73.8042 112.587 73.8995Z" fill="white"/>
</svg>
