<svg width="300" height="80" viewBox="0 0 300 80" fill="none" xmlns="http://www.w3.org/2000/svg">
<path fill-rule="evenodd" clip-rule="evenodd" d="M39.3662 0.088888C49.0699 0.0736925 53.602 8.37488 50.6516 18.0391C48.2164 26.0159 42.6455 32.6219 34.0344 34.3898C23.8285 36.485 22.9094 25.3391 27.0143 19.5498C28.691 17.1848 31.8758 13.7411 34.0344 17.9502C34.0047 17.9799 33.9751 18.0094 33.9455 18.0391C33.4768 17.6685 32.8406 16.3862 31.8127 16.7061C31.0707 16.9371 30.4687 17.9786 30.0355 18.5723C27.6887 21.7885 24.1139 30.1428 30.9242 31.4574C33.5353 31.9613 35.8906 30.7259 37.4112 29.9466C42.5318 27.3227 46.2012 22.915 47.9858 16.9728C49.4351 12.1467 48.4591 6.71448 45.4087 4.35429C42.0579 1.76137 36.5515 2.89659 32.968 4.44315C25.7671 7.55077 20.5033 12.9348 18.3057 21.0604C17.9167 22.4986 17.4336 24.7503 17.7725 26.7477C18.9889 33.9164 23.9525 36.6996 27.6362 41.3211C31.6529 46.3381 35.6712 53.7291 33.6789 62.7369C33.2082 64.8653 32.6012 66.8845 31.7239 68.6018C30.3317 71.3274 28.33 73.3422 25.9478 75.0888C23.5335 76.9077 19.055 80.1271 14.4845 79.6208C12.1141 79.3943 10.0868 79.0814 8.44198 78.1102C3.34047 75.0981 -1.85097 66.3013 0.799707 57.6717C2.21635 53.0602 5.22284 49.1316 8.97506 46.8305C10.0117 46.3567 11.0487 45.8826 12.0853 45.4087C23.8548 41.7743 24.3203 60.9543 16.7062 64.603C17.5947 63.596 18.4834 62.5888 19.372 61.5818C21.8842 57.4476 21.6994 49.7015 17.9502 47.0972C15.8676 45.6446 12.6876 46.6067 10.93 47.6304C6.85427 50.0934 4.0543 53.7862 2.75477 59.0047C0.644109 67.4801 7.52954 78.2642 16.1729 76.5995C20.7383 75.7202 25.0323 73.1788 27.3697 70.0236C31.6893 64.1927 30.1425 56.6028 27.4586 50.4739C25.3129 45.5743 21.2548 42.3813 18.5723 38.0332C16.9576 35.5015 16.3179 32.6792 15.4621 29.1469C14.8679 26.5852 14.5005 23.411 15.1067 20.4384C15.5265 18.3787 16.2149 16.3397 17.0616 14.5735C18.2443 12.1063 20.2502 9.71235 22.3045 8.08652C25.5159 5.54478 29.054 3.11963 33.1457 1.51069C35.0246 0.771797 37.3819 0.872478 39.3662 0.088888ZM172.304 25.5924C178.165 25.4248 175.964 33.4778 174.615 36.6114C171.434 43.9984 166.48 50.2241 161.73 56.1612C160.338 57.6124 158.945 59.0641 157.553 60.5154C157.873 63.088 161.049 65.5694 163.329 66.1138C164.979 66.5074 166.958 65.6041 168.039 65.1362C173.939 62.5825 178.496 57.3038 183.146 53.3175C184.613 52.0592 187.043 49.1392 189.366 50.7406C190.461 54.1367 187.127 58.6248 185.989 61.4041C185.644 62.2483 184.634 63.9973 185.101 65.2252C186.118 67.11 191.799 64.7782 192.832 64.2476C199.33 60.9144 203.111 54.283 208.116 49.4075C208.854 49.4329 208.877 49.6065 209.183 50.0296C208.424 54.5087 203.717 56.7589 205.095 62.9146C206.54 69.3708 217.581 65.4864 221.623 63.5367C219.901 60.0119 220.82 55.0504 221.801 51.4515C224.275 42.3773 229.208 35.3209 236.463 31.013C239.266 29.3486 245.521 25.7395 249.348 28.6138C252.472 30.9597 250.253 38.9672 248.815 41.4099C244.77 48.3525 239.79 54.5491 233.531 59.2713C231.813 60.4857 230.095 61.7003 228.377 62.9146C227.497 63.3885 226.599 63.8626 225.711 64.3365C229.192 71.6916 239.276 71.4175 247.216 68.3353C248.934 67.5653 250.652 66.7949 252.37 66.0248C251.939 64.7321 250.787 63.8535 250.415 62.2926C248.932 56.0839 255.336 50.4545 258.59 48.3413C260.534 47.0786 264.618 44.9629 267.476 46.8305C269.558 48.1912 269.177 51.7975 268.098 53.9395C266.286 57.5376 263.246 60.7145 260.19 63.0924C259.064 63.9217 257.938 64.7512 256.813 65.5806C258.628 66.1666 260.332 67.0604 262.411 67.5355C264.839 68.0903 268.487 68.3294 271.12 68.0687C273.074 68.0391 275.047 68.0095 276.985 67.9798C283.588 66.9582 290.163 67.0776 295.557 64.9585C297.192 64.3159 298.399 63.266 299.822 62.4703C299.882 62.5296 299.941 62.5889 300 62.6481C298.558 66.1076 293.855 66.943 289.87 67.8909C279.858 70.2721 262.617 71.8783 254.058 67.2689C252.645 67.9798 251.214 68.6908 249.793 69.4017C244.86 71.5645 236.224 74.2781 229.71 71.712C227.993 71.036 226.182 69.8645 225.089 68.513C224.437 67.5653 223.785 66.6172 223.134 65.6694C221.298 66.3803 219.461 67.0913 217.624 67.8021C210.069 70.1604 201.424 70.0778 202.518 60.4265C201.549 61.4039 200.563 62.3904 199.585 63.359C196.467 65.8585 193.598 67.8205 188.922 68.8685C187.653 69.1658 185.544 69.2895 184.301 68.7796C179.071 66.6342 183.918 58.1799 185.278 55.4503C183.833 56.0642 182.591 57.5954 181.368 58.5604C177.705 61.452 172.944 66.4973 168.661 68.3353C163.076 70.8084 156.423 66.901 154.799 62.9146C151.139 64.8049 148.512 67.3804 143.78 68.3353C142.64 68.5653 140.895 68.5287 139.87 68.2464C139.307 68.0391 138.744 67.8318 138.181 67.6244C136.73 68.1279 135.278 68.6315 133.827 69.135C129.38 70.4648 124.709 70.5386 119.609 71.3566C117.625 71.4159 115.64 71.4751 113.655 71.5343C112.42 71.2678 111.167 71.0011 109.923 70.7345C109.508 70.4976 109.094 70.2606 108.679 70.0236C107.444 70.468 106.191 70.9124 104.947 71.3566C101.88 72.3166 97.0228 73.0184 93.9278 71.6232C91.5694 70.607 89.7398 67.8715 88.9515 65.3139C88.4047 63.5714 88.3436 61.4704 87.1742 60.3377C83.2923 60.3961 77.4332 63.4426 74.7334 64.9585C73.8448 65.3732 72.9561 65.7879 72.0676 66.2026C71.6233 66.2618 71.1789 66.3211 70.7346 66.3803C70.1126 66.8839 69.4905 67.3874 68.8684 67.8909C65.4553 69.9207 60.8883 71.4038 56.6944 72.5118C51.7763 73.8111 43.7031 73.6103 41.1434 70.468C39.0267 67.8696 38.7402 63.0133 40.077 59.2713C42.2513 53.1851 46.6412 47.1307 53.2287 45.4976C57.1875 44.5163 61.5791 46.8075 60.3376 51.3625C59.8766 53.083 58.6723 54.3548 57.5829 55.4503C57.1011 55.9347 56.6545 56.6887 55.9835 56.9608C55.9835 56.8128 55.9835 56.6647 55.9835 56.5166C56.7966 54.9008 58.1483 53.4828 58.5604 51.5402C59.8882 45.2819 51.6604 48.5625 49.8519 49.8518C45.3024 53.0953 35.8074 68.0651 47.8081 70.2903C54.5748 71.545 66.5367 66.8167 68.5131 63.1812C68.5131 61.73 68.5131 60.2783 68.5131 58.827C68.8684 57.0796 69.224 55.3315 69.5793 53.5842C71.3516 47.9407 74.4953 42.9737 77.577 38.5664C79.9341 35.2231 82.2576 31.9691 85.6636 29.6801C86.7942 28.9202 88.9022 27.723 90.551 28.7915C93.6983 30.8312 91.2477 36.9803 90.1955 39.3661C87.6701 45.0927 83.5845 50.0552 79.9763 54.8281C78.9484 56.1879 75.0702 60.299 74.6445 61.5818C74.6742 61.5818 74.7038 61.5818 74.7334 61.5818C78.2613 60.1952 81.2023 58.1706 84.5971 56.8721C85.5129 56.5673 87.7507 55.9451 88.9515 56.4277C91.5957 57.4907 91.528 62.7898 92.6837 65.4029C94.9228 70.4662 101.279 69.4691 106.635 68.0687C102.596 59.9721 112.714 51.1165 117.654 48.6078C119.726 47.5556 124.037 45.8917 126.718 47.6304C129.242 49.2669 128.529 53.4933 127.162 55.8057C124.876 59.6741 121.18 62.1698 117.565 64.7808C115.869 66.0246 114.41 67.617 112.145 68.3353C112.145 68.3945 112.145 68.4538 112.145 68.513C120.888 69.6949 129.267 68.3996 136.76 66.558C136.276 65.0572 134.826 63.9369 135.338 61.3151C136.521 55.2569 146.828 47.0804 153.821 51.9846C155.027 43.058 162.565 31.4727 168.572 27.2808C169.71 26.5371 170.937 26.2317 172.304 25.5924ZM172.66 28.2583C165.186 31.918 161.369 39.3534 158.264 47.3637C157.574 49.1881 155.73 54.5841 156.754 57.1386C157.109 56.8128 157.465 56.4869 157.82 56.1612C159.33 54.3544 160.85 52.5472 162.352 50.7406C165.502 46.4697 168.494 42.0863 170.972 37.1446C171.79 35.5124 174.246 30.6083 172.927 28.2583C172.838 28.2583 172.749 28.2583 172.66 28.2583ZM245.438 29.3247C243.341 30.3581 241.431 30.7221 239.662 31.9016C232.597 36.6212 222.927 49.2503 224.822 61.7595C226.974 61.2476 229.11 59.2987 230.776 58.1161C236.991 53.7062 240.921 47.6432 244.905 40.9656C246.644 38.0508 249.024 33.2209 246.86 29.5024C246.386 29.4431 245.912 29.3839 245.438 29.3247ZM88.4182 31.9016C82.1608 37.3316 78.4158 43.0717 74.6445 50.9183C73.9647 52.3774 71.4945 57.6351 72.1564 59.6268C72.3638 59.4491 72.5711 59.2713 72.7784 59.0935C74.4963 57.1684 76.2146 55.2427 77.9324 53.3175C81.1294 49.162 83.9885 44.8934 86.4632 39.9882C86.9645 39.1795 89.6384 33.1687 88.4182 31.9016ZM264.633 48.6078C263.245 49.2453 261.988 49.46 260.812 50.2073C257.389 52.3812 250.557 59.5009 255.213 64.3365C255.243 64.3365 255.273 64.3365 255.302 64.3365C256.428 63.5664 257.553 62.7961 258.679 62.026C261.305 60.0407 263.614 57.5418 265.432 54.7393C266.386 53.2694 267.696 50.7829 266.41 48.8744C265.818 48.7856 265.225 48.6966 264.633 48.6078ZM123.164 49.4964C121.547 50.2007 120.019 50.363 118.632 51.1848C114.934 53.3741 107.377 60.1539 109.301 66.4691C113.975 66.9107 121.731 59.0038 123.874 56.0722C124.637 55.0292 127.809 50.9942 125.207 49.763C124.729 49.4773 123.962 49.4751 123.164 49.4964ZM149.2 52.7843C148.164 53.0213 147.127 53.2583 146.09 53.4952C143.279 54.6081 140.998 56.5405 139.336 58.827C138.495 60.008 137.171 62.3195 138.359 64.1588C141.258 68.6464 152.253 61.9834 153.91 59.8045C153.4 55.7581 153.997 52.7613 149.2 52.7843ZM98.5485 60.16C98.6078 60.16 98.6671 60.16 98.7263 60.16C98.6671 60.16 98.6078 60.16 98.5485 60.16Z" fill="white"/>
</svg>
