<svg width="300" height="148" viewBox="0 0 300 148" fill="none" xmlns="http://www.w3.org/2000/svg">
<path fill-rule="evenodd" clip-rule="evenodd" d="M108.825 0C113.582 0.0753656 115.76 3.89608 114.702 9.1038C113.298 16.0388 110.383 22.2726 107.212 27.657C101.124 37.9934 93.6098 48.2695 84.8557 56.0055C82.1286 58.2333 79.4008 60.4617 76.6738 62.6893C75.6367 63.3808 74.5994 64.0723 73.5624 64.7636C72.6405 67.3755 71.7185 69.9881 70.7966 72.5999C67.5264 80.9981 65.0879 90.0748 62.3842 99.1046C61.8081 101.716 61.2318 104.329 60.6558 106.941C58.5377 115.948 55.1233 141.589 63.9976 145.2C68.4366 147.041 71.414 142.63 74.4842 141.858C74.5227 141.935 74.5611 142.012 74.5994 142.088C72.4829 146.633 64.8469 149.441 60.3099 145.315C56.1523 141.447 55.8952 134.068 54.7785 126.992C53.7997 120.788 55.0879 112.222 56.1615 107.056C59.0597 93.184 61.8802 80.5802 66.6481 68.6818C66.6481 68.6433 66.6481 68.605 66.6481 68.5666C64.1416 69.0991 61.7807 70.2469 58.9271 70.7561C53.4548 71.7325 48.541 69.6752 44.4071 68.6818C43.5238 72.2154 42.64 75.7501 41.7567 79.2837C37.4042 93.7841 33.4012 109.67 22.8577 118.004C18.9742 121.1 10.6094 126.511 4.30427 121.807C-2.13742 117 -0.0788045 103.454 2.34523 95.9932C7.15468 82.4348 17.877 68.4389 30.9242 63.3808C32.5643 62.745 35.4106 62.0732 37.7233 62.459C38.6836 62.5357 39.6441 62.6126 40.6042 62.6893C41.8717 56.1983 43.1511 49.7053 44.4071 43.2142C44.9833 38.1826 45.5596 33.1496 46.1357 28.1181C47.1909 21.8018 46.0491 13.0044 42.5634 10.6019C39.5263 8.5086 35.704 11.6896 34.0357 13.2524C29.229 17.8285 25.4519 22.9932 22.7423 29.6162C21.9494 31.5545 20.1608 35.2458 21.129 37.9133C22.0509 37.9133 22.9729 37.9133 23.8947 37.9133C23.8564 37.99 23.818 38.0669 23.7795 38.1437C22.7425 38.2205 21.7052 38.2974 20.6682 38.3742C18.5271 36.4688 21.1682 28.707 21.9357 26.8503C24.7844 19.96 29.0619 13.5781 34.7271 9.4494C36.6856 8.02218 39.6951 6.07419 43.2548 7.25988C55.0006 11.4754 49.9243 42.6634 47.4033 54.1617C46.7888 57.4649 46.174 60.7691 45.5596 64.0722C48.133 64.6868 50.707 65.3016 53.2804 65.916C59.1571 67.0092 65.5644 64.4803 68.9529 61.998C70.1699 61.1063 70.653 58.0595 71.2577 56.5818C73.1781 52.0112 75.099 47.4391 77.0194 42.8684C82.7808 29.6498 92.334 9.10023 103.64 1.95905C105.229 0.955208 106.888 0.819688 108.825 0ZM108.825 4.26369C96.8888 10.2126 89.9003 26.5241 84.3947 39.0657C81.9731 44.5822 78.7372 50.2726 77.0194 56.2361C77.0579 56.2361 77.0963 56.2361 77.1347 56.2361C88.3584 48.356 99.5636 33.511 105.944 20.7427C107.393 17.9714 112.245 8.43784 109.978 4.37904C109.594 4.34055 109.209 4.30218 108.825 4.26369ZM122.884 78.0161C128.427 77.666 141.824 69.2223 144.434 65.6856C145.509 63.8803 146.585 62.0747 147.66 60.2695C147.66 60.231 147.66 60.1926 147.66 60.1542C142.226 59.9456 134.101 60.1495 132.449 56.1208C132.564 56.044 132.68 55.9672 132.795 55.8904C134.427 54.92 145.9 58.1894 149.85 56.6971C151.348 54.5191 152.858 52.3178 154.344 50.1285C157.763 45.5651 161.182 40.9089 164.6 36.3C165.482 35.101 168.708 29.5711 170.823 30.8837C172.807 32.1148 169.804 36.7512 169.095 38.1437C165.666 44.8712 160.642 50.2415 156.995 56.5818C156.995 56.6202 156.995 56.6586 156.995 56.6971C164.369 56.4666 171.814 56.236 179.12 56.0055C181.261 55.9873 186.226 55.2159 186.496 57.1579C184.557 58.4826 181.618 57.5926 178.544 58.0799C172.725 58.5792 166.789 59.0787 160.913 59.578C158.7 59.9446 155.564 59.3821 153.998 60.3846C152.347 63.1501 150.695 65.9392 149.043 68.6818C144.299 76.8027 138.733 87.1738 136.943 97.7218C135.003 109.36 155.463 102.496 158.839 100.027C158.839 99.6809 158.839 99.335 158.839 98.9893C155.535 96.1704 155.594 88.8291 157.456 84.5847C160.484 77.7718 167.465 72.9969 175.087 70.6408C178.312 69.644 183.558 68.7808 186.611 70.6408C190.292 72.883 190.206 78.5345 187.994 82.2798C183.407 90.0825 174.53 94.1408 167.596 99.6809C167.596 99.7192 167.596 99.7576 167.596 99.796C173.401 101.635 180.798 104.387 189.146 103.023C190.682 102.984 192.219 102.946 193.756 102.908C198.332 101.965 201.61 100.11 204.934 98.0674C206.834 96.8997 209.397 95.8161 210.811 94.1494C196.742 80.0172 214.425 56.9749 222.911 48.5152C225.401 46.0319 232.892 38.8563 238.353 41.3704C243.375 43.7524 241.072 53.2242 239.39 57.5036C235.098 68.4235 229.065 78.5898 222.45 87.3503C220.529 89.4628 218.608 91.5759 216.688 93.6884C216.765 93.8036 216.842 93.919 216.918 94.0341C220.531 95.4529 223.851 97.4445 228.212 98.5285C248.397 103.546 259.284 86.198 266.816 74.9047C269.06 71.5402 271.272 67.269 274.307 64.7636C280.507 59.8329 285.465 63.0549 288.712 68.4512C291.638 73.316 292.57 82.1895 291.132 89.3093C290.786 90.9225 290.44 92.5476 290.094 94.1494C289.672 95.148 289.249 96.147 288.827 97.1455C288.788 97.2224 288.75 97.2992 288.712 97.3761C289.672 98.1826 290.632 98.9894 291.593 99.796C294.067 101.784 300.951 108.313 299.89 112.587C299.698 112.626 299.506 112.664 299.314 112.703C297.763 107.846 291.446 102.26 287.444 99.6809C287.329 99.7576 287.214 99.8345 287.098 99.9113C285.114 104.841 278.057 109.095 272.002 110.168C264.377 111.518 254.769 104.238 256.099 97.0304C256.534 94.6749 257.556 93.3819 258.635 91.7293C254.234 94.9986 250.541 98.7424 244.575 100.603C242.237 101.365 239.603 101.51 236.855 101.986C230.84 103.058 223.071 100.675 219.108 99.1046C218.031 98.6779 213.82 96.301 213.346 96.5693C211.455 97.7975 209.93 99.8491 207.815 100.948C197.852 106.35 172.727 111.51 162.526 102.562C160.463 103.368 158.377 104.175 156.303 104.982C150.9 106.682 140.653 108.74 135.445 105.558C132.165 103.554 131.322 98.3759 132.449 93.3428C134.125 85.8984 137.126 79.5687 140.17 73.4066C134.611 76.3513 129.478 80.6218 122.077 81.819C119.242 91.4152 109.246 98.0626 99.1452 100.603C89.6136 103 79.9661 100.219 78.1719 92.536C76.208 84.1583 85.4841 77.3681 90.2719 74.9047C92.0771 74.1749 93.8828 73.4449 95.688 72.7152C95.957 72.1774 96.2258 71.6395 96.4947 71.1018C98.1391 68.9116 101.408 67.6034 104.446 66.838C114.289 64.358 122.999 68.7106 122.884 78.0161ZM235.357 46.6714C225.538 52.8668 218.095 61.3988 213.231 72.4846C210.287 79.2433 209.609 85.5269 213.807 91.4988C213.961 91.3837 214.114 91.2684 214.268 91.1532C214.806 90.6539 215.344 90.1544 215.881 89.655C217.379 87.6578 218.889 85.66 220.375 83.6627C225.002 77.1311 228.76 69.7776 232.13 61.998C233.875 58.0096 236.849 52.7445 235.817 46.6714C235.664 46.6714 235.51 46.6714 235.357 46.6714ZM280.991 66.6074C274.257 69.9423 270.464 77.4572 266.125 83.2018C263.947 85.7752 261.746 88.3493 259.557 90.9228C264.128 87.7102 269.962 86.1035 276.381 88.8484C278.562 89.7874 281.946 92.9878 283.756 93.2274C284.448 90.8845 285.139 88.5409 285.831 86.198C287.207 79.884 286.427 67.4903 280.991 66.6074ZM34.8423 67.2989C33.2822 67.9746 31.6937 68.0148 30.3482 68.797C19.2257 75.2619 10.0319 85.3453 5.80237 98.6436C4.08832 104.033 1.93682 115.419 7.18522 118.58C12.1364 121.562 19.3454 115.274 21.59 112.933C29.4439 104.743 32.788 91.9915 36.4558 79.6294C37.4543 75.6307 38.4533 71.5623 39.452 67.5295C39.3751 67.5295 39.2982 67.5295 39.2214 67.5295C38.1834 67.0841 36.2381 67.2775 34.8423 67.2989ZM108.249 70.2951C105.807 71.1838 102.74 70.5395 101.104 72.1389C102.743 72.3122 104.546 74.3942 103.524 76.6333C103.486 76.5564 103.447 76.4795 103.409 76.4027C102.782 75.442 102.824 74.4554 101.68 73.9827C100.792 73.7097 99.4302 73.8832 98.7994 74.2131C98.4174 79.4208 106.855 80.8733 112.398 79.9752C113.7 79.773 118.299 79.6812 118.736 79.0531C119.405 78.091 118.64 75.5048 118.39 74.9047C116.961 71.4692 113.25 70.2341 108.249 70.2951ZM180.273 73.9827C178.506 74.4052 176.739 74.8278 174.972 75.2504C169.429 77.4325 165.247 80.7153 162.296 85.5065C160.123 89.0578 160.614 94.6398 163.678 96.915C170.69 93.6214 177.687 88.8022 182.116 82.8561C183.462 81.0495 186.257 77.6082 184.306 74.6741C183.139 74.2486 182.037 73.973 180.273 73.9827ZM95.1118 75.3655C93.5101 76.2489 91.885 77.1327 90.2719 78.0161C86.7346 80.3757 78.4408 87.8345 83.0118 93.9188C85.409 97.1096 92.0916 97.8714 97.4166 96.6847C106.388 94.7049 113.507 90.3207 117.122 83.0865C117.122 83.0481 117.122 83.0097 117.122 82.9712C109.158 83.6175 99.7636 84.1183 96.2643 78.7074C95.8801 77.5937 95.496 76.4794 95.1118 75.3655ZM268.775 91.3836C266.985 92.13 265.277 92.2522 263.82 93.2274C258.97 96.4739 261.457 101.506 265.318 103.829C272.554 108.184 279.704 100.545 282.258 96.2236C282.113 95.8754 282.279 96.0858 282.028 95.8779C279.253 93.021 274.34 91.37 268.775 91.3836Z" fill="white"/>
</svg>
