<svg width="300" height="56" viewBox="0 0 300 56" fill="none" xmlns="http://www.w3.org/2000/svg">
<path fill-rule="evenodd" clip-rule="evenodd" d="M13.0928 0.00394578C20.1863 -0.142674 23.522 3.83529 28.998 5.52983C35.2517 7.4903 43.7716 6.36983 48.8334 4.11766C49.8977 3.65208 50.6384 2.82504 51.5969 2.2757C51.6582 2.2757 51.7197 2.2757 51.7811 2.2757C51.8016 2.31665 51.822 2.35761 51.8425 2.3985C50.9826 4.88816 48.8403 5.51835 46.4384 6.45088C41.1798 8.49245 34.0903 9.80092 27.4014 8.72257C26.685 9.92998 25.9684 11.1378 25.252 12.3451C24.0498 15.0735 23.3729 18.1467 22.7342 21.4935C22.4682 26.2822 22.2019 31.1148 21.9358 35.8609C21.2277 39.8107 20.0724 42.8588 18.1284 45.5005C16.8292 47.2661 13.4152 51.1909 10.0224 50.4124C6.48628 49.6009 6.11936 44.4423 7.56599 41.1412C8.75777 38.4214 13.4408 33.7687 17.8828 34.5101C18.415 34.6738 18.9473 34.8376 19.4795 35.0012C19.6228 33.3641 19.7661 31.7265 19.9093 30.0894C20.0117 28.3295 20.1141 26.569 20.2164 24.809C20.815 21.1928 21.1494 17.9535 22.3043 14.9853C22.9456 13.3371 23.6806 11.688 24.5765 10.2575C25.0472 9.58835 25.5182 8.90671 25.9889 8.23138C21.8087 7.12049 19.3134 3.8359 14.9965 2.82829C11.0797 1.93463 4.28818 4.88981 1.91622 6.26662C1.28173 6.65546 0.647059 7.04442 0.01251 7.4332C0.01251 7.39231 0.01251 7.35135 0.01251 7.31046C-0.180379 6.32084 1.91087 5.13977 2.59173 4.67025C4.72953 3.19631 7.06059 1.80729 9.65393 0.80213C10.8001 0.53615 11.9467 0.269987 13.0928 0.00394578ZM208.131 3.13534C216.859 3.03238 214.037 18.1508 212.552 24.1337C212.245 25.4843 211.938 26.8476 211.631 28.186C211.652 28.186 211.672 28.186 211.693 28.186C212.406 25.8284 214.026 23.502 215.254 21.555C217.299 18.3134 219.362 15.2634 221.58 12.2224C222.401 11.1071 224.576 7.60131 226.861 8.78397C228.807 9.79146 229.106 14.1827 228.58 17.1957C228.069 20.3407 227.668 23.3266 226.861 26.2213C226.032 29.2212 224.875 32.4954 224.527 35.738C224.548 35.738 224.568 35.738 224.589 35.738C224.589 35.6971 224.589 35.6562 224.589 35.6153C225.632 33.5462 226.683 31.4399 227.721 29.3526C229.927 25.5937 232.259 22.1565 235.274 19.2218C236.488 18.0404 240.114 15.0897 241.783 17.7483C243.001 19.7363 242.165 23.9349 241.661 26.0984C240.14 32.6167 237.423 41.4987 239.388 49.123C239.932 51.2323 240.49 54.0609 242.336 54.8331C243.346 55.2553 244.134 54.3763 244.854 54.4033C244.772 54.5056 244.69 54.608 244.608 54.7103C244.028 54.972 243.645 55.4623 242.827 55.5085C240.393 55.6458 239.18 51.4812 238.59 49.4914C236.499 42.2637 237.937 33.4137 239.327 26.4054C239.738 24.3341 240.17 21.3031 239.634 19.099C239.593 19.0785 239.552 19.0581 239.511 19.0376C237.947 19.6932 237.091 20.8299 235.888 21.8005C231.55 25.3177 228.365 31.7855 225.694 37.0275C224.513 39.3446 223.689 42.136 222.009 43.9655C221.805 43.945 221.6 43.9246 221.395 43.9041C221.377 42.7449 221.633 41.8457 221.825 40.8956C222.214 38.5831 222.603 36.2699 222.992 33.9575C223.626 29.7009 224.261 25.4431 224.896 21.1865C225.473 18.2697 226.185 14.2275 225.51 11.0557C224.064 11.5063 220.948 16.7524 219.983 18.178C215.102 25.605 210.792 33.5379 207.332 42.3691C206.207 45.6025 205.081 48.8368 203.955 52.0702C203.615 52.89 203.168 54.817 201.928 54.4647C200.351 53.9324 202.464 49.3039 202.911 48.202C204.528 44.1252 206.145 39.9742 207.762 35.8609C208.438 33.3642 209.119 30.8668 209.789 28.3702C209.748 28.3907 209.707 28.4111 209.666 28.4316C208.971 30.1692 207.373 31.275 206.288 32.6068C202.96 36.8026 193.44 45.9256 188.357 37.3345C185.929 33.2307 187.273 27.5335 188.909 23.7653C192.019 16.6059 198.753 8.13001 205.122 4.30186C206.074 3.74786 207.048 3.61634 208.131 3.13534ZM208.315 6.08242C207.423 6.43068 206.672 6.39734 205.92 6.81921C199.374 10.4899 192.609 18.5641 189.708 25.9142C187.91 30.4896 188.132 37.2282 192.41 38.9922C194.861 39.9821 198.171 37.6706 199.595 36.7205C202.924 34.4989 205.42 31.6954 207.762 28.493C208.521 27.4563 209.509 26.3503 210.034 25.1161C210.423 23.5608 210.812 22.005 211.201 20.4498C211.863 17.1849 212.446 8.0898 210.096 6.51222C209.624 6.1957 208.948 6.24667 208.315 6.08242ZM166.986 11.1785C171.42 11.0953 172.738 15.2408 171.101 18.9148C170.998 18.8534 170.896 18.792 170.794 18.7306C170.257 16.3468 171.343 14.6958 169.381 13.3275C165.544 10.6506 160.339 17.2639 161.214 21.4935C161.901 24.7604 165.363 24.2885 166.311 26.2213C166.311 26.4464 166.311 26.6715 166.311 26.8966C166.167 27.0399 166.024 27.1832 165.881 27.3265C163.757 27.2953 162.957 25.5915 159.985 26.4054C155.165 27.7259 146.686 35.0254 150.713 41.6324C154.506 47.8567 163.533 42.0599 166.004 38.5624C166.674 37.6125 167.843 35.6709 167.539 34.0803C165.96 33.738 165.159 32.3302 163.793 31.9313C161.605 31.2923 159.345 35.7197 161.091 37.3345C163.309 37.3426 162.961 35.4736 163.977 34.3259C164.255 34.3787 164.16 34.3187 164.284 34.5101C164.985 36.2493 161.942 39.5513 160.047 38.1326C157.499 36.2257 160.187 31.8478 161.766 30.8876C163.692 29.728 165.287 31.0846 166.618 31.8699C167.452 32.3434 168.282 32.5687 169.32 32.7909C170.237 33.006 172.071 33.1673 172.759 32.6068C169.433 31.1148 173.355 21.1509 177.057 23.8881C178.637 25.0265 178.036 27.9171 177.487 29.6596C176.17 33.9346 173.776 35.0999 168.521 34.4487C168.521 34.4896 168.521 34.5306 168.521 34.5715C167.858 36.2177 167.832 37.545 166.986 38.9308C164.572 42.8865 154.591 49.7542 149.73 43.6585C147.675 41.0982 147.039 37.2724 148.625 33.6505C150.42 29.5491 155.608 24.892 160.968 24.3793C160.947 24.3179 160.927 24.2565 160.907 24.1951C159.569 23.1334 159.394 20.433 159.985 18.485C160.906 15.4516 162.477 12.8327 165.205 11.6083C165.799 11.4651 166.393 11.3218 166.986 11.1785ZM74.8098 32.3612C72.3845 32.4826 66.6813 37.7563 65.3527 39.3606C64.4808 40.445 62.7654 42.9606 60.8698 42.492C59.1713 40.2929 61.8964 34.8288 62.5893 32.6068C62.5688 32.5862 62.5483 32.5658 62.5279 32.5454C61.6916 32.7149 60.9747 33.3201 60.3171 33.7119C57.0277 35.6717 54.1109 37.8668 51.167 40.1587C50.2894 40.842 47.9051 43.5919 46.7455 43.4129C46.6227 43.2901 46.4998 43.1673 46.377 43.0445C46.3961 41.8713 47.1557 40.913 47.5438 40.036C48.5969 37.6562 49.8553 35.6119 50.9827 33.3435C46.1591 36.8912 43.7223 42.8056 37.7182 45.2549C35.0101 46.388 30.7511 46.6784 29.0594 44.3953C28.9775 44.4772 28.8957 44.559 28.8138 44.6409C27.4841 45.2727 24.7505 48.5689 22.9799 48.1406C23.1459 47.5353 24.2929 47.1944 24.7607 46.8513C26.0093 45.7257 27.2582 44.5998 28.5067 43.4743C27.1621 37.3761 30.2409 33.4767 33.5423 30.3349C34.3002 29.6317 37.7017 27.598 39.3149 28.5544C41.2722 29.7148 40.8709 32.5992 39.8675 34.4487C38.4797 37.0072 35.0116 39.8664 32.6826 41.5709C31.8469 42.1826 30.8877 42.6324 30.2263 43.4129C30.2671 43.4538 30.3081 43.4948 30.349 43.5357C31.4538 45.9268 36.704 44.1104 38.2709 43.4129C40.6155 42.3814 42.6407 40.3351 44.1662 38.4396C45.8037 36.8229 47.4416 35.2058 49.0791 33.5891C49.6414 33.0478 52.3412 30.3045 53.1321 30.5805C53.2549 30.7033 53.3778 30.8262 53.5006 30.949C53.8171 32.0505 52.8094 33.3748 52.3952 34.0803C51.2346 36.1676 50.0615 38.2739 48.8948 40.343C49.7135 39.6267 50.5325 38.9103 51.3513 38.194C53.9219 36.2391 56.339 34.2103 59.2117 32.6068C59.9698 32.1835 62.378 30.4882 63.449 31.1946C64.1811 31.6639 64.1756 33.0962 63.8788 34.0803C63.1996 36.3333 62.1889 38.2541 61.6681 40.7727C61.6886 40.7727 61.709 40.7727 61.7295 40.7727C62.5687 39.9193 63.4081 39.0535 64.2473 38.194C66.3414 36.1011 68.3826 34.1225 70.941 32.4839C71.6974 31.9995 73.971 30.403 75.3011 30.8876C76.5375 31.338 76.4489 33.1879 75.9152 34.3259C74.9575 36.3678 73.578 38.1185 72.7833 40.343C72.5163 41.0903 72.2507 42.5505 72.7219 43.2901C73.3918 44.3417 75.3948 44.1227 76.5907 43.6585C79.1975 42.6466 82.0372 40.7908 83.6528 38.7466C82.2629 30.6043 85.7261 22.2881 90.3465 18.6078C91.5987 17.6463 94.9161 14.7535 97.2858 16.0905C99.6628 17.4315 97.685 21.4928 96.856 23.1513C95.3778 26.1083 93.9624 29.0798 92.066 31.6857C90.187 34.3358 87.8467 36.6758 85.6179 38.9922C85.8148 42.1843 89.2323 43.304 92.7415 42.492C95.7026 41.8067 97.6865 40.3213 99.4966 38.501C100.381 37.6116 101.877 35.6103 100.663 33.9575C99.5833 32.5097 98.1664 33.7353 96.6717 33.2207C96.5285 33.0979 96.3852 32.9751 96.2419 32.8523C96.2624 32.709 96.2828 32.5658 96.3033 32.4225C97.4334 30.1931 104.828 33.2628 106.436 32.3612C107.351 30.1057 110.779 27.8026 113.13 26.8966C114.536 26.3546 116.556 26.4347 117.183 27.6335C117.955 29.1531 116.627 30.2878 115.954 30.949C113.922 32.946 111.243 34.3058 107.173 34.2645C104.794 41.4719 111.177 42.2592 116.63 39.9131C119.844 38.5331 122.226 35.9936 123.753 32.9137C124.281 31.8504 124.718 28.2784 125.596 27.8176C126.525 27.3336 133.543 27.1145 134.623 27.572C136.32 28.291 135.005 30.4649 134.377 31.3173C132.494 33.8742 128.206 38.264 129.956 43.2901C130.83 45.7624 133.564 46.9632 136.281 47.588C137.48 47.8637 140.451 47.1678 140.58 47.5267C139.015 49.3506 136.69 49.4982 133.886 48.6318C129.994 47.422 127.979 46.053 127.254 41.6324C126.331 36.011 131.017 32.1746 133.088 29.3526C133.088 29.3321 133.088 29.3117 133.088 29.2912C131.91 29.2724 126.995 29.075 126.517 29.5368C126.128 30.7442 125.739 31.9519 125.35 33.1593C123.746 36.8707 120.908 39.9457 117.183 41.5096C116.145 41.8165 115.095 42.1236 114.051 42.4305C108.728 43.6059 105.567 41.6687 104.839 37.2731C104.631 36.0174 105.26 35.051 105.392 34.0803C104.389 33.9166 103.386 33.7528 102.383 33.5891C102.383 33.6096 102.383 33.63 102.383 33.6505C103.508 36.0024 102.299 38.0397 101.155 39.4834C99.0196 42.1761 93.6178 45.655 88.2586 44.2111C86.7825 43.8134 85.5873 42.9905 84.8811 41.8165C84.6559 41.3254 84.4307 40.8341 84.2055 40.343C81.7914 42.2279 79.9186 44.3058 76.5907 45.3163C74.3079 46.0094 71.9725 45.355 71.2481 43.5971C69.6066 39.6141 74.7269 35.6427 74.8098 32.3612ZM96.1191 17.7483C90.9205 20.5973 88.4986 24.2202 86.4163 30.1508C85.8402 31.7915 84.8111 34.7387 85.4337 36.9661C85.9454 36.4749 86.4573 35.9836 86.969 35.4924C88.1152 34.1623 89.2618 32.8317 90.4079 31.5016C92.2837 28.9564 93.7693 26.1566 95.2593 23.2127C95.806 22.1326 97.4605 19.2086 96.9788 17.7483C96.6922 17.7483 96.4056 17.7483 96.1191 17.7483ZM175.338 25.0546C173.125 26.4815 171.363 29.6882 173.434 32.4225C173.496 32.4021 173.557 32.3816 173.618 32.3612C174.744 31.397 177.711 27.2619 175.952 25.0546C175.747 25.0546 175.543 25.0546 175.338 25.0546ZM114.788 28.0018C112.637 28.9478 108.948 30.3348 108.278 32.6068C111.442 31.8253 114.55 31.2105 115.832 28.6158C115.77 28.4521 115.709 28.2883 115.647 28.1246C115.361 28.0837 115.074 28.0427 114.788 28.0018ZM37.9638 30.1508C34.1715 32.2078 32.7522 33.9069 30.8403 37.8256C30.4053 38.7172 29.2646 40.7659 29.8578 42.2464C29.8987 42.2054 29.9397 42.1645 29.9806 42.1235C30.697 41.4687 31.4135 40.8136 32.13 40.1587C34.2909 38.421 36.2957 36.2423 37.9024 33.9575C38.6229 32.933 39.6961 31.3395 38.6394 30.1508C38.4142 30.1508 38.189 30.1508 37.9638 30.1508ZM269.049 53.4823C269.135 51.9815 270.531 51.3782 271.26 50.4738C272.76 48.6433 274.469 46.6668 276.296 45.1935C277.114 44.4629 277.933 43.7198 278.752 42.9831C278.485 40.5696 278.975 37.4714 278.568 35.1241C278.507 35.1036 278.445 35.0831 278.384 35.0627C273 37.1573 269.866 41.5834 265.181 44.3339C262.39 45.9722 258.238 45.5745 256.645 43.1059C256.087 42.2426 256.276 41.1598 255.969 40.0974C255.928 40.1178 255.887 40.1383 255.846 40.1587C254.842 42.5442 250.725 45.5545 248.17 46.4828C246.705 47.0431 244.574 46.9195 243.503 46.1145C242.245 45.1695 242.076 43.1776 242.705 41.4482C243.707 38.7067 245.579 36.2508 247.679 34.5715C248.579 33.8516 249.581 33.0242 250.688 32.5454C253.504 31.3267 258.64 30.7497 259.469 34.1417C259.681 35.0081 259.135 35.6709 258.917 36.1679C257.872 38.5468 256.51 41.6172 259.224 43.2287C259.769 43.5236 260.377 43.6833 261.066 43.7813C262.871 44.0229 264.548 42.7715 265.549 42.0622C268.575 39.9574 271.126 37.4358 274.331 35.4311C275.122 34.9357 277.461 33.1908 278.752 33.4663C281.726 34.1006 279.621 39.0324 280.349 41.6324C280.451 41.53 280.554 41.4277 280.656 41.3253C281.556 40.5681 282.457 39.8108 283.358 39.0536C285.466 37.4081 287.575 35.7379 289.683 34.0803C290.246 33.699 292.167 31.8585 292.815 31.9928C293.949 32.4039 291.143 34.851 290.727 35.1854C287.555 38.0505 284.381 40.9163 281.209 43.7813C281.939 45.5548 285.598 46.4628 288.332 45.9916C291.769 45.3994 294.692 44.5178 297.052 42.8603C298.014 42.0827 298.977 41.3048 299.939 40.5272C299.959 40.5272 299.979 40.5272 300 40.5272C300 40.6295 300 40.7318 300 40.8342C298.548 44.238 290.101 48.9665 284.218 47.588C282.173 47.1049 281.17 46.1238 279.796 45.0707C279.755 45.0707 279.714 45.0707 279.673 45.0707C278.855 45.7869 278.036 46.5034 277.217 47.2197C275.488 48.603 273.89 50.1403 272.12 51.5176C271.245 52.2439 270.452 53.3819 269.049 53.4823ZM255.416 32.6682C254.577 32.9341 253.738 33.2003 252.899 33.4663C249.918 34.7552 247.45 36.8645 245.591 39.2992C244.54 40.6758 243.146 42.8819 244.424 45.0093C249.21 46.9065 254.027 40.251 255.723 37.6415C256.533 36.3967 257.974 35.0582 257.381 33.2207C256.821 32.9819 256.294 32.699 255.416 32.6682ZM16.9617 35.1241C16.1839 35.3082 15.4059 35.4925 14.6281 35.6767C11.61 36.9004 9.33454 39.2246 8.2415 42.3691C7.52239 44.4838 7.89877 47.6697 9.4697 48.5704C11.0277 49.4638 12.7342 47.8847 13.5841 47.2197C16.6618 44.811 18.7182 40.564 19.3566 35.738C18.7256 35.2661 18.1496 35.1051 16.9617 35.1241ZM145.677 42.6761C145.718 42.6761 145.759 42.6761 145.8 42.6761C145.689 42.8247 145.799 42.7195 145.615 42.7989C145.636 42.758 145.656 42.717 145.677 42.6761Z" fill="white"/>
</svg>
